<?xml version="1.0" encoding="UTF-8" standalone="no"?><!-- Generator: Gravit.io --><svg xmlns="http://www.w3.org/2000/svg" xmlns:xlink="http://www.w3.org/1999/xlink" style="isolation:isolate" viewBox="258.825 185.73 50.349 51.04" width="50.349pt" height="51.04pt"><defs><clipPath id="_clipPath_CwlUoZ1qTtlpAhaYlVc4QUNAcuIzOlnO"><rect x="258.825" y="185.73" width="50.349" height="51.04"/></clipPath></defs><g clip-path="url(#_clipPath_CwlUoZ1qTtlpAhaYlVc4QUNAcuIzOlnO)"><path d=" M 270.456 222.012 C 271.744 222.012 272.936 222.642 273.726 223.738 C 274.517 224.836 274.745 226.225 274.335 227.452 C 273.562 229.769 271.842 230.997 269.349 231.004 C 267.88 231.004 266.442 230.301 265.597 229.17 C 264.868 228.193 264.659 227.003 265.008 225.817 C 265.728 223.38 267.432 222.171 270.37 222.013 L 270.456 222.012 L 270.456 222.012 L 270.456 222.012 L 270.456 222.012 L 270.456 222.012 L 270.456 222.012 L 270.456 222.012 L 270.456 222.012 L 270.456 222.012 L 270.456 222.012 Z  M 298.864 194.624 C 299.751 194.624 300.574 195.058 301.118 195.815 C 301.663 196.574 301.819 197.532 301.535 198.378 C 300.993 199.992 299.794 200.848 298.06 200.853 C 297.041 200.853 296.044 200.365 295.458 199.581 C 294.957 198.909 294.813 198.091 295.054 197.276 C 295.564 195.554 296.721 194.736 298.803 194.624 L 298.864 194.624 L 298.864 194.624 L 298.864 194.624 L 298.864 194.624 L 298.864 194.624 L 298.864 194.624 L 298.864 194.624 L 298.864 194.624 Z  M 262.191 206.19 C 261.988 206.19 261.814 206.302 261.713 206.496 C 260.779 208.306 260.926 210.209 261.176 212.162 C 261.224 212.531 261.546 212.725 261.839 212.725 C 262.011 212.725 262.165 212.661 262.264 212.549 C 262.33 212.475 262.402 212.343 262.375 212.137 C 262.167 210.52 261.931 208.688 262.755 207.093 C 262.857 206.897 262.851 206.689 262.741 206.508 C 262.623 206.314 262.408 206.19 262.191 206.19 L 262.191 206.19 L 262.191 206.19 L 262.191 206.19 Z  M 262.897 204.23 C 262.717 204.23 262.566 204.295 262.458 204.42 C 262.366 204.529 262.314 204.675 262.314 204.829 C 262.314 205.127 262.514 205.429 262.897 205.429 C 263.077 205.429 263.228 205.363 263.335 205.238 C 263.428 205.129 263.48 204.983 263.48 204.829 C 263.48 204.531 263.28 204.23 262.897 204.23 L 262.897 204.23 L 262.897 204.23 Z  M 304.753 217.371 C 304.956 217.371 305.132 217.273 305.248 217.096 C 306.341 215.414 306.683 213.474 306.963 211.467 C 306.99 211.281 306.938 211.103 306.817 210.963 C 306.689 210.815 306.492 210.725 306.301 210.725 C 306.032 210.725 305.84 210.897 305.802 211.173 C 305.562 212.888 305.29 214.831 304.217 216.481 C 304.098 216.664 304.086 216.862 304.182 217.04 C 304.289 217.238 304.519 217.371 304.753 217.371 L 304.753 217.371 Z  M 289.494 231.724 C 289.351 231.752 289.226 231.843 289.142 231.98 C 289.051 232.128 289.024 232.309 289.067 232.464 L 289.801 235.054 C 287.424 233.88 285.097 232.567 282.878 231.148 C 284.631 229.393 285.983 227.353 286.899 225.079 C 287.325 226.179 287.643 227.139 287.895 228.084 C 287.964 228.346 288.189 228.515 288.468 228.515 C 288.57 228.515 288.673 228.491 288.768 228.448 C 296.213 225.041 300.835 216.958 299.555 209.612 C 302.235 209.127 304.686 208.349 307.589 207.384 C 308.598 212.424 307.614 217.381 304.74 221.725 C 301.38 226.804 295.824 230.447 289.494 231.724 L 289.494 231.724 L 289.494 231.724 L 289.494 231.724 L 289.494 231.724 L 289.494 231.724 Z  M 270.468 220.812 L 270.363 220.814 C 266.503 221.021 264.187 222.909 263.665 226.274 C 263.453 227.647 263.875 229.034 264.856 230.18 C 265.975 231.485 267.694 232.297 269.342 232.297 L 269.36 232.297 C 272.61 232.285 275.168 230.104 275.728 226.867 C 275.97 225.465 275.537 223.981 274.538 222.795 C 273.493 221.553 271.971 220.812 270.468 220.812 L 270.468 220.812 L 270.468 220.812 L 270.468 220.812 L 270.468 220.812 L 270.468 220.812 L 270.468 220.812 L 270.468 220.812 L 270.468 220.812 L 270.468 220.812 Z  M 298.055 202.115 L 298.068 202.115 C 300.531 202.107 302.459 200.454 302.869 198.002 C 303.046 196.937 302.712 195.812 301.953 194.915 C 301.163 193.981 300.014 193.425 298.799 193.425 C 298.798 193.425 298.797 193.425 298.796 193.425 C 295.894 193.58 294.152 195.005 293.759 197.543 C 293.597 198.59 293.919 199.646 294.665 200.517 C 295.511 201.503 296.81 202.115 298.055 202.115 L 298.055 202.115 L 298.055 202.115 L 298.055 202.115 L 298.055 202.115 L 298.055 202.115 L 298.055 202.115 L 298.055 202.115 Z  M 308.622 206.447 C 308.586 206.295 308.503 206.178 308.383 206.106 C 308.29 206.033 308.18 205.994 308.066 205.994 C 308.004 205.994 307.941 206.005 307.877 206.026 L 307.47 206.161 C 304.534 207.138 301.759 208.061 298.72 208.557 C 298.585 208.578 298.471 208.653 298.389 208.774 C 298.289 208.921 298.25 209.119 298.288 209.292 C 299.964 216.858 294.686 224.072 288.837 227.068 C 288.423 225.648 287.949 224.348 287.389 223.095 C 287.302 222.901 287.128 222.79 286.912 222.79 C 286.633 222.79 286.365 222.977 286.288 223.226 C 285.369 226.205 283.802 228.69 281.497 230.824 C 281.37 230.943 281.307 231.106 281.323 231.282 C 281.339 231.478 281.448 231.658 281.613 231.767 C 284.43 233.612 287.404 235.274 290.451 236.708 C 290.538 236.749 290.632 236.77 290.729 236.77 C 290.932 236.77 291.122 236.679 291.239 236.525 C 291.345 236.384 291.375 236.206 291.325 236.024 L 290.396 232.749 C 296.934 231.27 302.616 227.348 305.996 221.978 C 308.976 217.241 309.884 211.871 308.622 206.447 L 308.622 206.447 L 308.622 206.447 L 308.622 206.447 L 308.622 206.447 L 308.622 206.447 Z  M 269.298 212.177 C 266.033 212.552 262.872 213.29 260.193 213.971 C 259.512 208.885 260.822 204.001 263.983 199.84 C 267.663 194.995 273.413 191.731 279.756 190.882 C 279.963 190.855 280.134 190.759 280.237 190.613 C 280.331 190.479 280.362 190.312 280.323 190.13 L 279.783 187.6 L 281 188.358 C 282.799 189.478 284.659 190.634 286.413 191.891 C 284.531 193.536 283.088 195.432 282.011 197.675 C 281.65 196.526 281.392 195.536 281.204 194.576 C 281.147 194.287 280.857 194.131 280.613 194.131 C 280.562 194.131 280.511 194.138 280.464 194.15 C 272.457 196.335 267.368 204.57 269.298 212.177 L 269.298 212.177 L 269.298 212.177 L 269.298 212.177 L 269.298 212.177 L 269.298 212.177 L 269.298 212.177 Z  M 292.229 196.614 C 293.195 193.538 295.399 192.015 299.162 191.818 L 299.282 191.817 C 301.029 191.817 302.602 192.672 303.598 194.162 C 304.665 195.759 304.872 197.751 304.153 199.492 C 303.077 202.095 300.668 203.776 298.018 203.776 C 297.525 203.776 297.025 203.719 296.531 203.606 C 294.915 203.238 293.522 202.213 292.707 200.794 C 291.96 199.492 291.79 198.008 292.229 196.614 L 292.229 196.614 L 292.229 196.614 L 292.229 196.614 L 292.229 196.614 L 292.229 196.614 L 292.229 196.614 L 292.229 196.614 L 292.229 196.614 Z  M 269.15 234.982 C 269.019 234.982 268.888 234.98 268.755 234.976 C 266.101 234.881 263.618 233.515 262.114 231.319 C 260.76 229.346 260.421 226.952 261.184 224.752 C 261.688 223.297 262.838 220.669 264.885 219.425 C 266.617 218.372 268.718 218.268 270.751 218.167 C 270.751 218.167 271.084 218.153 271.194 218.153 C 273.482 218.153 275.617 219.294 277.051 221.281 C 278.55 223.359 278.992 225.964 278.233 228.248 C 276.83 232.465 273.435 234.982 269.15 234.982 L 269.15 234.982 L 269.15 234.982 L 269.15 234.982 L 269.15 234.982 L 269.15 234.982 L 269.15 234.982 L 269.15 234.982 L 269.15 234.982 L 269.15 234.982 Z  M 281.925 199.95 C 282.183 199.95 282.405 199.789 282.504 199.531 C 283.595 196.679 285.376 194.236 287.799 192.272 C 287.924 192.171 287.989 192.032 287.986 191.872 C 287.981 191.671 287.867 191.458 287.694 191.33 C 285.814 189.932 283.793 188.681 281.84 187.472 C 280.959 186.927 280.079 186.381 279.206 185.821 C 279.112 185.76 279.01 185.73 278.906 185.73 C 278.736 185.73 278.572 185.812 278.455 185.956 C 278.33 186.11 278.281 186.305 278.321 186.49 L 279.025 189.794 C 272.368 190.869 266.429 194.422 262.718 199.555 C 259.455 204.069 258.208 209.362 259.112 214.864 C 259.155 215.128 259.342 215.298 259.587 215.306 L 259.692 215.314 C 259.745 215.314 259.797 215.308 259.851 215.294 C 263.068 214.465 266.505 213.627 270.053 213.283 C 270.26 213.264 270.448 213.155 270.556 212.994 C 270.649 212.855 270.672 212.687 270.622 212.522 C 268.49 205.614 272.868 197.846 280.189 195.501 C 280.505 196.953 280.886 198.272 281.353 199.53 C 281.449 199.789 281.668 199.95 281.925 199.95 L 281.925 199.95 L 281.925 199.95 L 281.925 199.95 L 281.925 199.95 L 281.925 199.95 L 281.925 199.95 Z  M 297.197 204.916 C 297.46 204.939 297.721 204.951 297.978 204.951 C 301.774 204.951 304.825 202.439 305.749 198.552 C 306.178 196.749 305.71 194.813 304.468 193.239 C 303.17 191.598 301.234 190.617 299.288 190.617 L 299.155 190.619 C 294.35 190.869 291.539 193.14 290.801 197.369 C 290.523 198.959 290.964 200.608 292.043 202.016 C 293.302 203.656 295.228 204.74 297.197 204.916 L 297.197 204.916 L 297.197 204.916 L 297.197 204.916 L 297.197 204.916 L 297.197 204.916 L 297.197 204.916 L 297.197 204.916 L 297.197 204.916 Z  M 271.195 216.953 C 271.08 216.953 270.968 216.956 270.854 216.962 C 268.555 217.076 265.694 217.218 263.578 218.873 C 261.386 220.586 259.994 223.716 259.585 226.059 C 259.201 228.268 259.854 230.542 261.424 232.461 C 263.239 234.68 266.045 236.103 268.748 236.175 L 269.078 236.18 C 274.539 236.18 278.859 232.471 279.825 226.951 C 280.222 224.681 279.493 222.239 277.823 220.253 C 276.087 218.187 273.609 216.953 271.195 216.953 L 271.195 216.953 L 271.195 216.953 L 271.195 216.953 L 271.195 216.953 L 271.195 216.953 L 271.195 216.953 L 271.195 216.953 L 271.195 216.953 L 271.195 216.953 Z  M 306.163 210.189 C 306.342 210.189 306.494 210.123 306.601 209.998 C 306.694 209.889 306.746 209.743 306.746 209.589 C 306.746 209.291 306.545 208.989 306.163 208.989 C 305.983 208.989 305.831 209.055 305.724 209.18 C 305.631 209.289 305.58 209.435 305.58 209.589 C 305.58 209.887 305.78 210.189 306.163 210.189 Z " fill-rule="evenodd" fill="rgb(232,232,232)"/></g></svg>