<?xml version="1.0" encoding="UTF-8" standalone="no"?><!-- Generator: Gravit.io --><svg xmlns="http://www.w3.org/2000/svg" xmlns:xlink="http://www.w3.org/1999/xlink" style="isolation:isolate" viewBox="277.406 274.873 50.349 51.04" width="50.349pt" height="51.04pt"><defs><clipPath id="_clipPath_R2I63mWrFBxnuIurujPNkdHvTtVugERh"><rect x="277.406" y="274.873" width="50.349" height="51.04"/></clipPath></defs><g clip-path="url(#_clipPath_R2I63mWrFBxnuIurujPNkdHvTtVugERh)"><path d=" M 287.73 324.125 C 287.599 324.125 287.468 324.123 287.335 324.119 C 284.681 324.024 282.198 322.658 280.694 320.462 C 279.34 318.489 279.001 316.095 279.764 313.895 C 280.268 312.44 281.418 309.812 283.465 308.568 C 285.197 307.515 287.298 307.411 289.331 307.31 C 289.331 307.31 289.664 307.296 289.774 307.296 C 292.062 307.296 294.197 308.437 295.631 310.424 C 297.13 312.502 297.572 315.107 296.813 317.391 C 295.41 321.608 292.015 324.125 287.73 324.125 Z  M 289.775 306.096 C 289.66 306.096 289.548 306.099 289.434 306.105 C 287.135 306.219 284.274 306.361 282.158 308.016 C 279.966 309.729 278.574 312.859 278.165 315.202 C 277.781 317.411 278.434 319.685 280.004 321.604 C 281.819 323.823 284.625 325.246 287.328 325.318 L 287.658 325.323 C 293.119 325.323 297.439 321.614 298.405 316.094 C 298.802 313.824 298.073 311.382 296.403 309.396 C 294.667 307.33 292.189 306.096 289.775 306.096 Z " fill="rgb(54,57,63)"/><path d=" M 289.036 311.155 C 290.324 311.155 291.516 311.785 292.306 312.881 C 293.097 313.979 293.325 315.368 292.915 316.595 C 292.142 318.912 290.422 320.14 287.929 320.147 C 286.46 320.147 285.022 319.444 284.177 318.313 C 283.448 317.336 283.239 316.146 283.588 314.96 C 284.308 312.523 286.012 311.314 288.95 311.156 L 289.036 311.155 Z  M 289.048 309.955 L 288.943 309.957 C 285.083 310.164 282.767 312.052 282.245 315.417 C 282.033 316.79 282.455 318.177 283.436 319.323 C 284.555 320.628 286.274 321.44 287.922 321.44 L 287.94 321.44 C 291.19 321.428 293.748 319.247 294.308 316.01 C 294.55 314.608 294.117 313.124 293.118 311.938 C 292.073 310.696 290.551 309.955 289.048 309.955 Z " fill="rgb(54,57,63)"/><path d=" M 310.809 285.757 C 311.775 282.681 313.979 281.158 317.742 280.961 L 317.862 280.96 C 319.609 280.96 321.182 281.815 322.178 283.305 C 323.245 284.902 323.452 286.894 322.733 288.635 C 321.657 291.238 319.248 292.919 316.598 292.919 C 316.105 292.919 315.605 292.862 315.111 292.749 C 313.495 292.381 312.102 291.356 311.287 289.937 C 310.54 288.635 310.37 287.151 310.809 285.757 Z  M 315.777 294.059 C 316.04 294.082 316.301 294.094 316.558 294.094 C 320.354 294.094 323.405 291.582 324.329 287.695 C 324.758 285.892 324.29 283.956 323.048 282.382 C 321.75 280.741 319.814 279.76 317.868 279.76 L 317.735 279.762 C 312.93 280.012 310.119 282.283 309.381 286.512 C 309.103 288.102 309.544 289.751 310.623 291.159 C 311.882 292.799 313.808 293.883 315.777 294.059 Z " fill="rgb(54,57,63)"/><path d=" M 317.444 283.767 C 318.331 283.767 319.154 284.201 319.698 284.958 C 320.243 285.717 320.399 286.675 320.115 287.521 C 319.573 289.135 318.374 289.991 316.64 289.996 C 315.621 289.996 314.624 289.508 314.038 288.724 C 313.537 288.052 313.393 287.234 313.634 286.419 C 314.144 284.697 315.301 283.879 317.383 283.767 L 317.444 283.767 Z  M 316.635 291.258 L 316.648 291.258 C 319.111 291.25 321.039 289.597 321.449 287.145 C 321.626 286.08 321.292 284.955 320.533 284.058 C 319.743 283.124 318.594 282.568 317.379 282.568 C 317.378 282.568 317.377 282.568 317.376 282.568 C 314.474 282.723 312.732 284.148 312.339 286.686 C 312.177 287.733 312.499 288.789 313.245 289.66 C 314.091 290.646 315.39 291.258 316.635 291.258 Z " fill="rgb(54,57,63)"/><path d=" M 287.878 301.32 C 284.613 301.695 281.452 302.433 278.773 303.114 C 278.092 298.028 279.402 293.144 282.563 288.983 C 286.243 284.138 291.993 280.874 298.336 280.025 C 298.543 279.998 298.714 279.902 298.817 279.756 C 298.911 279.622 298.942 279.455 298.903 279.273 L 298.363 276.743 L 299.58 277.501 C 301.379 278.621 303.239 279.777 304.993 281.034 C 303.111 282.679 301.668 284.575 300.591 286.818 C 300.23 285.669 299.972 284.679 299.784 283.719 C 299.727 283.43 299.437 283.274 299.193 283.274 C 299.142 283.274 299.091 283.281 299.044 283.293 C 291.037 285.478 285.948 293.713 287.878 301.32 Z  M 300.505 289.093 C 300.763 289.093 300.985 288.932 301.084 288.674 C 302.175 285.822 303.956 283.379 306.379 281.415 C 306.504 281.314 306.569 281.175 306.566 281.015 C 306.561 280.814 306.447 280.601 306.274 280.473 C 304.394 279.075 302.373 277.824 300.42 276.615 C 299.539 276.07 298.659 275.524 297.786 274.964 C 297.692 274.903 297.59 274.873 297.486 274.873 C 297.316 274.873 297.152 274.955 297.035 275.099 C 296.91 275.253 296.861 275.448 296.901 275.633 L 297.605 278.937 C 290.948 280.012 285.009 283.565 281.298 288.698 C 278.035 293.212 276.788 298.505 277.692 304.007 C 277.735 304.271 277.922 304.441 278.167 304.449 L 278.272 304.457 C 278.325 304.457 278.377 304.451 278.431 304.437 C 281.648 303.608 285.085 302.77 288.633 302.426 C 288.84 302.407 289.028 302.298 289.136 302.137 C 289.229 301.998 289.252 301.83 289.202 301.665 C 287.07 294.757 291.448 286.989 298.769 284.644 C 299.085 286.096 299.466 287.415 299.933 288.673 C 300.029 288.932 300.248 289.093 300.505 289.093 Z " fill="rgb(54,57,63)"/><path d=" M 308.074 320.867 C 307.931 320.895 307.806 320.986 307.722 321.123 C 307.631 321.271 307.604 321.452 307.647 321.607 L 308.381 324.197 C 306.004 323.023 303.677 321.71 301.458 320.291 C 303.211 318.536 304.563 316.496 305.479 314.222 C 305.905 315.322 306.223 316.282 306.475 317.227 C 306.544 317.489 306.769 317.658 307.048 317.658 C 307.15 317.658 307.253 317.634 307.348 317.591 C 314.793 314.184 319.415 306.101 318.135 298.755 C 320.815 298.27 323.266 297.492 326.169 296.527 C 327.178 301.567 326.194 306.524 323.32 310.868 C 319.96 315.947 314.404 319.59 308.074 320.867 Z  M 327.202 295.59 C 327.166 295.438 327.083 295.321 326.963 295.249 C 326.87 295.176 326.76 295.137 326.646 295.137 C 326.584 295.137 326.521 295.148 326.457 295.169 L 326.05 295.304 C 323.114 296.281 320.339 297.204 317.3 297.7 C 317.165 297.721 317.051 297.796 316.969 297.917 C 316.869 298.064 316.83 298.262 316.868 298.435 C 318.544 306.001 313.266 313.215 307.417 316.211 C 307.003 314.791 306.529 313.491 305.969 312.238 C 305.882 312.044 305.708 311.933 305.492 311.933 C 305.213 311.933 304.945 312.12 304.868 312.369 C 303.949 315.348 302.382 317.833 300.077 319.967 C 299.95 320.086 299.887 320.249 299.903 320.425 C 299.919 320.621 300.028 320.801 300.193 320.91 C 303.01 322.755 305.984 324.417 309.031 325.851 C 309.118 325.892 309.212 325.913 309.309 325.913 C 309.512 325.913 309.702 325.822 309.819 325.668 C 309.925 325.527 309.955 325.349 309.905 325.167 L 308.976 321.892 C 315.514 320.413 321.196 316.491 324.576 311.121 C 327.556 306.384 328.464 301.014 327.202 295.59 Z " fill="rgb(54,57,63)"/><path d=" M 280.771 295.333 C 280.568 295.333 280.394 295.445 280.293 295.639 C 279.359 297.449 279.506 299.352 279.756 301.305 C 279.804 301.674 280.126 301.868 280.419 301.868 C 280.591 301.868 280.745 301.804 280.844 301.692 C 280.91 301.618 280.982 301.486 280.955 301.28 C 280.747 299.663 280.511 297.831 281.335 296.236 C 281.437 296.04 281.431 295.832 281.321 295.651 C 281.203 295.457 280.988 295.333 280.771 295.333 Z " fill="rgb(54,57,63)"/><path d=" M 281.477 293.373 C 281.297 293.373 281.146 293.438 281.038 293.563 C 280.946 293.672 280.894 293.818 280.894 293.972 C 280.894 294.27 281.094 294.572 281.477 294.572 C 281.657 294.572 281.808 294.506 281.915 294.381 C 282.008 294.272 282.06 294.126 282.06 293.972 C 282.06 293.674 281.86 293.373 281.477 293.373 Z " fill="rgb(54,57,63)"/><path d=" M 323.333 306.514 C 323.536 306.514 323.712 306.416 323.828 306.239 C 324.921 304.557 325.263 302.617 325.543 300.61 C 325.57 300.424 325.518 300.246 325.397 300.106 C 325.269 299.958 325.072 299.868 324.881 299.868 C 324.612 299.868 324.42 300.04 324.382 300.316 C 324.142 302.031 323.87 303.974 322.797 305.624 C 322.678 305.807 322.666 306.005 322.762 306.183 C 322.869 306.381 323.099 306.514 323.333 306.514 Z " fill="rgb(54,57,63)"/><path d=" M 324.743 299.332 C 324.922 299.332 325.074 299.266 325.181 299.141 C 325.274 299.032 325.326 298.886 325.326 298.732 C 325.326 298.434 325.125 298.132 324.743 298.132 C 324.563 298.132 324.411 298.198 324.304 298.323 C 324.211 298.432 324.16 298.578 324.16 298.732 C 324.16 299.03 324.36 299.332 324.743 299.332 Z " fill="rgb(54,57,63)"/></g></svg>