<?xml version="1.0" encoding="UTF-8" standalone="no"?><!-- Generator: Gravit.io --><svg xmlns="http://www.w3.org/2000/svg" xmlns:xlink="http://www.w3.org/1999/xlink" style="isolation:isolate" viewBox="275.871 173.037 42.257 58.926" width="42.257pt" height="58.926pt"><defs><clipPath id="_clipPath_YSq5ne3okVm4Uq0Oh0KGCndXiIC2gsX6"><rect x="275.871" y="173.037" width="42.257" height="58.926"/></clipPath></defs><g clip-path="url(#_clipPath_YSq5ne3okVm4Uq0Oh0KGCndXiIC2gsX6)"><path d=" M 277.373 218.446 C 277.378 218.081 277.383 217.769 277.371 217.561 C 277.035 211.141 276.981 204.348 277.208 196.798 L 277.231 196.797 C 277.322 196.797 277.412 196.799 277.513 196.805 C 277.944 196.831 278.38 196.839 278.816 196.839 C 279.115 196.839 280.309 196.825 280.605 196.825 C 280.805 196.825 281.003 196.826 281.228 196.831 C 281.327 196.831 281.492 196.821 281.692 196.809 C 281.993 196.793 282.372 196.771 282.72 196.771 C 283.44 196.771 283.573 196.87 283.597 196.899 C 283.686 197.034 283.553 198.07 283.489 198.567 C 283.447 198.892 283.413 199.163 283.414 199.273 L 283.422 201.599 C 283.428 203.516 283.427 205.433 283.425 207.351 C 283.423 211.656 283.42 216.106 283.502 220.481 C 283.506 220.695 283.52 220.882 283.534 221.047 C 283.582 221.624 283.602 221.863 283.092 222.112 C 282.924 222.194 282.639 222.234 282.221 222.234 C 281.964 222.234 281.693 222.22 281.445 222.207 C 281.236 222.195 281.044 222.185 280.828 222.185 C 280.822 222.185 280.816 222.185 280.811 222.185 C 280.689 222.187 280.519 222.197 280.318 222.209 C 279.976 222.228 279.546 222.253 279.137 222.253 C 278.522 222.253 278.118 222.196 277.934 222.084 C 277.325 221.712 277.354 219.668 277.373 218.446 Z  M 284.676 218.776 C 284.667 216.746 284.618 200.678 284.618 200.678 C 284.617 200.407 284.652 200.04 284.691 199.629 C 284.816 198.294 284.988 196.466 284.142 195.848 C 283.865 195.647 283.406 195.554 282.697 195.554 C 282.349 195.554 281.989 195.576 281.668 195.596 C 281.415 195.612 281.187 195.627 281.008 195.627 L 280.957 195.726 L 280.957 195.726 L 280.896 195.626 L 280.827 195.724 C 280.802 193.066 280.754 190.412 280.707 187.756 C 280.678 186.105 280.647 184.454 280.623 182.802 C 280.617 182.421 280.313 182.221 280.016 182.221 C 279.847 182.221 279.687 182.284 279.578 182.394 C 279.475 182.5 279.421 182.641 279.424 182.805 C 279.448 184.457 279.478 186.108 279.507 187.759 C 279.554 190.383 279.601 193.006 279.627 195.633 C 279.377 195.636 279.128 195.637 278.879 195.637 C 278.445 195.637 278.012 195.631 277.565 195.603 C 277.471 195.597 277.372 195.596 277.273 195.596 L 276.622 195.607 C 276.416 195.609 276.25 195.702 276.147 195.867 C 276.067 195.971 276.027 196.081 276.023 196.204 C 275.716 205.82 275.876 214.496 276.511 222.726 C 276.533 223.017 276.752 223.318 277.114 223.318 C 277.115 223.318 277.116 223.318 277.117 223.318 C 277.509 223.293 277.901 223.284 278.293 223.284 C 278.82 223.284 279.348 223.301 279.875 223.317 L 279.91 223.318 C 279.987 226.009 280.096 228.696 280.208 231.385 C 280.224 231.764 280.532 231.963 280.829 231.963 C 280.999 231.963 281.157 231.899 281.263 231.789 C 281.364 231.683 281.414 231.54 281.407 231.377 C 281.297 228.713 281.188 226.049 281.104 223.346 L 281.454 223.348 C 281.688 223.348 281.922 223.345 282.157 223.336 L 282.307 223.334 C 282.307 223.334 282.906 223.346 283.039 223.346 C 283.634 223.346 284.286 223.278 284.61 222.771 C 285.003 222.16 284.867 220.863 284.759 219.821 C 284.716 219.415 284.678 219.047 284.676 218.776 Z " fill="rgb(54,57,63)"/><path d=" M 294.383 196.115 C 294.392 196.179 294.398 196.305 294.393 196.422 C 294.133 196.471 293.854 196.478 293.59 196.478 L 292.933 196.479 C 292.502 196.491 292.072 196.52 291.643 196.55 C 291.079 196.588 290.517 196.626 289.952 196.626 C 289.831 196.626 289.71 196.625 289.589 196.621 C 288.756 196.595 288.379 196.551 288.182 195.784 C 288.064 195.328 288.087 194.765 288.108 194.221 C 288.118 193.979 288.127 193.744 288.123 193.528 C 288.095 191.76 288.102 189.921 288.126 187.963 C 288.314 187.699 288.902 187.565 289.874 187.565 C 290.299 187.565 290.717 187.591 291.036 187.609 C 291.235 187.621 291.396 187.631 291.499 187.631 C 291.67 187.631 291.914 187.611 292.189 187.59 C 292.54 187.561 292.941 187.528 293.307 187.528 C 293.757 187.528 294.062 187.58 294.216 187.681 C 294.701 188.004 294.551 189.904 294.461 191.039 C 294.431 191.431 294.404 191.768 294.403 191.99 C 294.401 192.43 294.38 192.888 294.357 193.352 C 294.312 194.278 294.267 195.235 294.383 196.115 Z  M 294.96 186.581 C 294.629 186.405 294.156 186.323 293.471 186.323 C 293.046 186.323 292.602 186.354 292.194 186.384 L 291.892 186.404 C 291.865 183.776 291.819 181.151 291.772 178.525 C 291.743 176.89 291.714 175.255 291.689 173.618 C 291.684 173.236 291.38 173.037 291.082 173.037 C 290.913 173.037 290.754 173.099 290.645 173.21 C 290.541 173.315 290.487 173.458 290.49 173.622 C 290.514 175.259 290.543 176.894 290.572 178.53 C 290.619 181.155 290.666 183.78 290.692 186.408 L 290.506 186.397 C 290.173 186.378 289.814 186.356 289.459 186.356 C 288.613 186.356 287.439 186.469 287.023 187.443 C 286.975 187.532 286.95 187.624 286.948 187.722 C 286.897 189.944 286.857 192.871 286.985 195.812 C 287.057 197.463 287.485 197.706 289.154 197.798 C 289.603 197.823 290.064 197.832 290.532 197.832 L 290.785 197.831 C 290.841 200.058 290.865 202.288 290.89 204.516 C 290.925 207.607 290.96 210.803 291.08 213.944 C 291.094 214.324 291.402 214.522 291.699 214.522 C 291.868 214.522 292.027 214.459 292.133 214.348 C 292.235 214.243 292.286 214.1 292.279 213.936 C 292.16 210.794 292.124 207.596 292.09 204.502 C 292.065 202.269 292.04 200.036 291.985 197.804 C 292.778 197.77 293.553 197.711 294.289 197.628 C 295.214 197.522 295.461 197.388 295.573 196.406 C 295.723 195.083 295.685 193.697 295.646 192.357 C 295.627 191.641 295.606 190.928 295.614 190.227 C 295.617 189.982 295.645 189.702 295.674 189.408 C 295.774 188.371 295.9 187.08 294.96 186.581 Z " fill="rgb(54,57,63)"/><path d=" M 316.769 214.017 C 316.777 214.082 316.784 214.209 316.778 214.324 C 316.518 214.374 316.235 214.381 315.967 214.381 L 315.318 214.383 C 314.888 214.394 314.457 214.424 314.026 214.453 C 313.462 214.491 312.897 214.529 312.331 214.529 C 312.213 214.529 312.094 214.527 311.975 214.524 C 311.142 214.497 310.765 214.453 310.567 213.686 C 310.45 213.23 310.473 212.668 310.494 212.124 C 310.504 211.882 310.513 211.647 310.509 211.43 C 310.48 209.662 310.487 207.824 310.512 205.866 C 310.7 205.602 311.288 205.468 312.26 205.468 C 312.682 205.468 313.098 205.493 313.416 205.512 C 313.618 205.524 313.781 205.533 313.888 205.533 C 314.06 205.533 314.305 205.513 314.579 205.492 C 314.929 205.464 315.328 205.431 315.692 205.431 C 316.143 205.431 316.448 205.483 316.602 205.585 C 317.087 205.907 316.937 207.807 316.847 208.942 C 316.816 209.334 316.79 209.671 316.789 209.892 C 316.787 210.333 316.766 210.792 316.743 211.255 C 316.698 212.18 316.652 213.137 316.769 214.017 Z  M 318 208.13 C 318.003 207.886 318.03 207.606 318.06 207.313 C 318.161 206.275 318.287 204.983 317.346 204.483 C 317.016 204.307 316.543 204.225 315.859 204.225 C 315.437 204.225 314.996 204.257 314.59 204.286 L 314.278 204.306 L 314.237 199.597 C 314.196 194.787 314.154 189.976 314.075 185.165 C 314.069 184.784 313.765 184.584 313.467 184.584 C 313.298 184.584 313.139 184.647 313.03 184.758 C 312.927 184.863 312.873 185.005 312.876 185.169 C 312.955 189.979 312.996 194.791 313.037 199.601 L 313.079 204.31 L 312.894 204.3 C 312.56 204.28 312.201 204.259 311.846 204.259 C 310.999 204.259 309.825 204.371 309.411 205.346 C 309.361 205.434 309.336 205.525 309.334 205.625 C 309.284 207.838 309.243 210.758 309.371 213.715 C 309.442 215.365 309.871 215.609 311.54 215.701 C 311.981 215.726 312.437 215.734 312.899 215.734 L 313.174 215.733 C 313.235 217.835 313.324 219.935 313.413 222.036 L 313.466 223.282 C 313.481 223.662 313.79 223.86 314.087 223.86 C 314.257 223.86 314.415 223.797 314.52 223.686 C 314.622 223.581 314.672 223.437 314.665 223.274 L 314.618 222.151 C 314.526 220.004 314.436 217.856 314.372 215.707 C 315.176 215.672 315.95 215.612 316.676 215.53 C 317.6 215.425 317.847 215.291 317.959 214.308 C 318.108 212.986 318.07 211.6 318.032 210.261 C 318.013 209.544 317.992 208.831 318 208.13 Z " fill="rgb(54,57,63)"/><path d=" M 299.333 196.798 L 299.356 196.797 C 299.447 196.797 299.537 196.799 299.639 196.805 C 300.07 196.831 300.506 196.839 300.942 196.839 C 301.24 196.839 302.972 196.825 303.105 196.826 C 301.698 197.954 300.436 198.992 299.258 199.989 C 299.275 198.927 299.301 197.863 299.333 196.798 Z  M 304.831 211.052 L 305.6 210.417 L 305.604 211.029 C 305.607 211.544 305.611 212.058 305.621 212.573 C 305.622 212.669 305.639 212.821 305.657 213 C 305.702 213.431 305.786 214.235 305.62 214.418 C 305.591 214.45 305.454 214.526 304.831 214.526 C 304.514 214.526 304.162 214.508 303.871 214.491 C 303.661 214.48 303.481 214.471 303.366 214.471 L 302.811 214.492 C 302.511 214.506 302.205 214.519 301.899 214.519 C 301.383 214.519 300.975 214.478 300.615 214.389 L 300.612 214.388 C 302.068 213.338 303.473 212.177 304.831 211.052 Z  M 299.379 206.278 C 301.522 204.686 303.522 202.908 305.547 201.072 L 305.556 203.629 L 305.531 204.288 C 303.869 205.883 302.068 207.381 300.326 208.829 L 299.441 209.566 C 299.377 208.485 299.328 207.404 299.296 206.325 C 299.322 206.314 299.351 206.3 299.379 206.278 Z  M 305.025 196.781 C 305.422 196.801 305.536 196.858 305.569 196.892 C 305.769 197.097 305.662 198.753 305.641 199.393 L 305.559 199.444 L 305.395 199.592 C 303.434 201.376 301.406 203.22 299.266 204.859 C 299.246 203.736 299.239 202.612 299.248 201.488 C 299.329 201.465 299.397 201.428 299.461 201.374 C 301.249 199.846 303.095 198.329 304.945 196.866 C 304.98 196.838 305.005 196.808 305.025 196.781 Z  M 305.585 208.938 L 305.538 208.919 C 304.988 209.364 304.444 209.815 303.899 210.267 C 302.562 211.377 301.181 212.523 299.741 213.545 C 299.728 213.447 299.712 213.336 299.69 213.204 C 299.606 212.681 299.579 212.132 299.553 211.599 L 299.544 211.037 C 300.05 210.611 300.558 210.187 301.065 209.764 C 302.56 208.518 304.103 207.232 305.562 205.89 C 305.564 206.524 305.585 208.938 305.585 208.938 Z  M 306.801 211.123 L 306.743 200.149 C 306.742 199.902 306.772 199.578 306.805 199.218 C 306.918 197.973 307.058 196.425 306.267 195.848 C 305.99 195.647 305.532 195.554 304.822 195.554 C 304.474 195.554 304.114 195.576 303.794 195.596 C 303.54 195.612 303.312 195.627 303.134 195.627 L 303.083 195.726 L 303.083 195.726 L 303.083 195.726 L 303.022 195.626 L 302.953 195.724 C 302.903 190.529 302.83 185.339 302.749 180.142 C 302.743 179.762 302.438 179.561 302.141 179.561 C 301.972 179.561 301.812 179.625 301.704 179.735 C 301.601 179.841 301.547 179.982 301.55 180.146 C 301.63 185.309 301.703 190.469 301.753 195.633 C 301.503 195.636 301.254 195.637 301.005 195.637 C 300.57 195.637 300.137 195.631 299.691 195.603 C 299.597 195.597 299.498 195.596 299.399 195.596 L 298.748 195.607 C 298.541 195.609 298.374 195.702 298.271 195.869 C 298.193 195.973 298.153 196.083 298.149 196.204 C 297.949 202.252 298.108 208.413 298.636 215.038 C 298.659 215.329 298.878 215.63 299.239 215.63 C 299.24 215.63 299.241 215.63 299.242 215.63 C 299.634 215.604 300.026 215.596 300.419 215.596 C 300.946 215.596 301.474 215.612 302.001 215.629 L 302.035 215.63 C 302.079 217.354 302.108 219.08 302.139 220.805 C 302.184 223.452 302.229 226.188 302.334 228.879 C 302.348 229.259 302.656 229.457 302.953 229.457 C 303.123 229.457 303.281 229.393 303.388 229.283 C 303.489 229.178 303.54 229.035 303.533 228.871 C 303.43 226.182 303.383 223.447 303.338 220.803 C 303.31 219.099 303.28 217.396 303.229 215.656 L 303.61 215.659 C 303.834 215.659 304.058 215.656 304.282 215.647 L 304.437 215.645 L 305.165 215.658 C 305.76 215.658 306.411 215.59 306.736 215.083 C 307.128 214.471 306.992 213.19 306.884 212.161 C 306.842 211.759 306.803 211.393 306.801 211.123 Z " fill="rgb(54,57,63)"/></g></svg>