<?xml version="1.0" encoding="UTF-8" standalone="no"?><!-- Generator: Gravit.io --><svg xmlns="http://www.w3.org/2000/svg" xmlns:xlink="http://www.w3.org/1999/xlink" style="isolation:isolate" viewBox="262.871 181.787 42.257 58.926" width="42.257pt" height="58.926pt"><defs><clipPath id="_clipPath_3gnsQpTryMESjY1LSzvY3FOUVNZlSO2C"><rect x="262.871" y="181.787" width="42.257" height="58.926"/></clipPath></defs><g clip-path="url(#_clipPath_3gnsQpTryMESjY1LSzvY3FOUVNZlSO2C)"><path d=" M 264.373 227.196 C 264.378 226.831 264.383 226.519 264.371 226.311 C 264.035 219.891 263.981 213.098 264.208 205.548 L 264.231 205.547 C 264.322 205.547 264.412 205.549 264.513 205.555 C 264.944 205.581 265.38 205.589 265.816 205.589 C 266.115 205.589 267.309 205.575 267.605 205.575 C 267.805 205.575 268.003 205.576 268.228 205.581 C 268.327 205.581 268.492 205.571 268.692 205.559 C 268.993 205.543 269.372 205.521 269.72 205.521 C 270.44 205.521 270.573 205.62 270.597 205.649 C 270.686 205.784 270.553 206.82 270.489 207.317 C 270.447 207.642 270.413 207.913 270.414 208.023 L 270.422 210.349 C 270.428 212.266 270.427 214.183 270.425 216.101 C 270.423 220.406 270.42 224.856 270.502 229.231 C 270.506 229.445 270.52 229.632 270.534 229.797 C 270.582 230.374 270.602 230.613 270.092 230.862 C 269.924 230.944 269.639 230.984 269.221 230.984 C 268.964 230.984 268.693 230.97 268.445 230.957 C 268.236 230.945 268.044 230.935 267.828 230.935 C 267.822 230.935 267.816 230.935 267.811 230.935 C 267.689 230.937 267.519 230.947 267.318 230.959 C 266.976 230.978 266.546 231.003 266.137 231.003 C 265.522 231.003 265.118 230.946 264.934 230.834 C 264.325 230.462 264.354 228.418 264.373 227.196 L 264.373 227.196 L 264.373 227.196 L 264.373 227.196 Z  M 281.383 204.865 C 281.392 204.929 281.398 205.055 281.393 205.172 C 281.133 205.221 280.854 205.228 280.59 205.228 L 279.933 205.229 C 279.502 205.241 279.072 205.27 278.643 205.3 C 278.079 205.338 277.517 205.376 276.952 205.376 C 276.831 205.376 276.71 205.375 276.589 205.371 C 275.756 205.345 275.379 205.301 275.182 204.534 C 275.064 204.078 275.087 203.515 275.108 202.971 C 275.118 202.729 275.127 202.494 275.123 202.278 C 275.095 200.51 275.102 198.671 275.126 196.713 C 275.314 196.449 275.902 196.315 276.874 196.315 C 277.299 196.315 277.717 196.341 278.036 196.359 C 278.235 196.371 278.396 196.381 278.499 196.381 C 278.67 196.381 278.914 196.361 279.189 196.34 C 279.54 196.311 279.941 196.278 280.307 196.278 C 280.757 196.278 281.062 196.33 281.216 196.431 C 281.701 196.754 281.551 198.654 281.461 199.789 C 281.431 200.181 281.404 200.518 281.403 200.74 C 281.401 201.18 281.38 201.638 281.357 202.102 C 281.312 203.028 281.267 203.985 281.383 204.865 L 281.383 204.865 L 281.383 204.865 L 281.383 204.865 Z  M 303.769 222.767 C 303.777 222.832 303.784 222.959 303.778 223.074 C 303.518 223.124 303.235 223.131 302.967 223.131 L 302.318 223.133 C 301.888 223.144 301.457 223.174 301.026 223.203 C 300.462 223.241 299.897 223.279 299.331 223.279 C 299.213 223.279 299.094 223.277 298.975 223.274 C 298.142 223.247 297.765 223.203 297.567 222.436 C 297.45 221.98 297.473 221.418 297.494 220.874 C 297.504 220.632 297.513 220.397 297.509 220.18 C 297.48 218.412 297.487 216.574 297.512 214.616 C 297.7 214.352 298.288 214.218 299.26 214.218 C 299.682 214.218 300.098 214.243 300.416 214.262 C 300.618 214.274 300.781 214.283 300.888 214.283 C 301.06 214.283 301.305 214.263 301.579 214.242 C 301.929 214.214 302.328 214.181 302.692 214.181 C 303.143 214.181 303.448 214.233 303.602 214.335 C 304.087 214.657 303.937 216.557 303.847 217.692 C 303.816 218.084 303.79 218.421 303.789 218.642 C 303.787 219.083 303.766 219.542 303.743 220.005 C 303.698 220.93 303.652 221.887 303.769 222.767 L 303.769 222.767 L 303.769 222.767 Z  M 271.676 227.526 C 271.667 225.496 271.618 209.428 271.618 209.428 C 271.617 209.157 271.652 208.79 271.691 208.379 C 271.816 207.044 271.988 205.216 271.142 204.598 C 270.865 204.397 270.406 204.304 269.697 204.304 C 269.349 204.304 268.989 204.326 268.668 204.346 C 268.415 204.362 268.187 204.377 268.008 204.377 L 267.957 204.476 L 267.957 204.476 L 267.896 204.376 L 267.827 204.474 C 267.802 201.816 267.754 199.162 267.707 196.506 C 267.678 194.855 267.647 193.204 267.623 191.552 C 267.617 191.171 267.313 190.971 267.016 190.971 C 266.847 190.971 266.687 191.034 266.578 191.144 C 266.475 191.25 266.421 191.391 266.424 191.555 C 266.448 193.207 266.478 194.858 266.507 196.509 C 266.554 199.133 266.601 201.756 266.627 204.383 C 266.377 204.386 266.128 204.387 265.879 204.387 C 265.445 204.387 265.012 204.381 264.565 204.353 C 264.471 204.347 264.372 204.346 264.273 204.346 L 263.622 204.357 C 263.416 204.359 263.25 204.452 263.147 204.617 C 263.067 204.721 263.027 204.831 263.023 204.954 C 262.716 214.57 262.876 223.246 263.511 231.476 C 263.533 231.767 263.752 232.068 264.114 232.068 C 264.115 232.068 264.116 232.068 264.117 232.068 C 264.509 232.043 264.901 232.034 265.293 232.034 C 265.82 232.034 266.348 232.051 266.875 232.067 L 266.91 232.068 C 266.987 234.759 267.096 237.446 267.208 240.135 C 267.224 240.514 267.532 240.713 267.829 240.713 C 267.999 240.713 268.157 240.649 268.263 240.539 C 268.364 240.433 268.414 240.29 268.407 240.127 C 268.297 237.463 268.188 234.799 268.104 232.096 L 268.454 232.098 C 268.688 232.098 268.922 232.095 269.157 232.086 L 269.307 232.084 C 269.307 232.084 269.906 232.096 270.039 232.096 C 270.634 232.096 271.286 232.028 271.61 231.521 C 272.003 230.91 271.867 229.613 271.759 228.571 C 271.716 228.165 271.678 227.797 271.676 227.526 L 271.676 227.526 L 271.676 227.526 L 271.676 227.526 Z  M 281.96 195.331 C 281.629 195.155 281.156 195.073 280.471 195.073 C 280.046 195.073 279.602 195.104 279.194 195.134 L 278.892 195.154 C 278.865 192.526 278.819 189.901 278.772 187.275 C 278.743 185.64 278.714 184.005 278.689 182.368 C 278.684 181.986 278.38 181.787 278.082 181.787 C 277.913 181.787 277.754 181.849 277.645 181.96 C 277.541 182.065 277.487 182.208 277.49 182.372 C 277.514 184.009 277.543 185.644 277.572 187.28 C 277.619 189.905 277.666 192.53 277.692 195.158 L 277.506 195.147 C 277.173 195.128 276.814 195.106 276.459 195.106 C 275.613 195.106 274.439 195.219 274.023 196.193 C 273.975 196.282 273.95 196.374 273.948 196.472 C 273.897 198.694 273.857 201.621 273.985 204.562 C 274.057 206.213 274.485 206.456 276.154 206.548 C 276.603 206.573 277.064 206.582 277.532 206.582 L 277.785 206.581 C 277.841 208.808 277.865 211.038 277.89 213.266 C 277.925 216.357 277.96 219.553 278.08 222.694 C 278.094 223.074 278.402 223.272 278.699 223.272 C 278.868 223.272 279.027 223.209 279.133 223.098 C 279.235 222.993 279.286 222.85 279.279 222.686 C 279.16 219.544 279.124 216.346 279.09 213.252 C 279.065 211.019 279.04 208.786 278.985 206.554 C 279.778 206.52 280.553 206.461 281.289 206.378 C 282.214 206.272 282.461 206.138 282.573 205.156 C 282.723 203.833 282.685 202.447 282.646 201.107 C 282.627 200.391 282.606 199.678 282.614 198.977 C 282.617 198.732 282.645 198.452 282.674 198.158 C 282.774 197.121 282.9 195.83 281.96 195.331 L 281.96 195.331 L 281.96 195.331 L 281.96 195.331 Z  M 305 216.88 C 305.003 216.636 305.03 216.356 305.06 216.063 C 305.161 215.025 305.287 213.733 304.346 213.233 C 304.016 213.057 303.543 212.975 302.859 212.975 C 302.437 212.975 301.996 213.007 301.59 213.036 L 301.278 213.056 L 301.237 208.347 C 301.196 203.537 301.154 198.726 301.075 193.915 C 301.069 193.534 300.765 193.334 300.467 193.334 C 300.298 193.334 300.139 193.397 300.03 193.508 C 299.927 193.613 299.873 193.755 299.876 193.919 C 299.955 198.729 299.996 203.541 300.037 208.351 L 300.079 213.06 L 299.894 213.05 C 299.56 213.03 299.201 213.009 298.846 213.009 C 297.999 213.009 296.825 213.121 296.411 214.096 C 296.361 214.184 296.336 214.275 296.334 214.375 C 296.284 216.588 296.243 219.508 296.371 222.465 C 296.442 224.115 296.871 224.359 298.54 224.451 C 298.981 224.476 299.437 224.484 299.899 224.484 L 300.174 224.483 C 300.235 226.585 300.324 228.685 300.413 230.786 L 300.466 232.032 C 300.481 232.412 300.79 232.61 301.087 232.61 C 301.257 232.61 301.415 232.547 301.52 232.436 C 301.622 232.331 301.672 232.187 301.665 232.024 L 301.618 230.901 C 301.526 228.754 301.436 226.606 301.372 224.457 C 302.176 224.422 302.95 224.362 303.676 224.28 C 304.6 224.175 304.847 224.041 304.959 223.058 C 305.108 221.736 305.07 220.35 305.032 219.011 C 305.013 218.294 304.992 217.581 305 216.88 L 305 216.88 L 305 216.88 Z  M 286.333 205.548 L 286.356 205.547 C 286.447 205.547 286.537 205.549 286.639 205.555 C 287.07 205.581 287.506 205.589 287.942 205.589 C 288.24 205.589 289.972 205.575 290.105 205.576 C 288.698 206.704 287.436 207.742 286.258 208.739 C 286.275 207.677 286.301 206.613 286.333 205.548 L 286.333 205.548 Z  M 291.831 219.802 L 292.6 219.167 L 292.604 219.779 C 292.607 220.294 292.611 220.808 292.621 221.323 C 292.622 221.419 292.639 221.571 292.657 221.75 C 292.702 222.181 292.786 222.985 292.62 223.168 C 292.591 223.2 292.454 223.276 291.831 223.276 C 291.514 223.276 291.162 223.258 290.871 223.241 C 290.661 223.23 290.481 223.221 290.366 223.221 L 289.811 223.242 C 289.511 223.256 289.205 223.269 288.899 223.269 C 288.383 223.269 287.975 223.228 287.615 223.139 L 287.612 223.138 C 289.068 222.088 290.473 220.927 291.831 219.802 L 291.831 219.802 Z  M 286.379 215.028 C 288.522 213.436 290.522 211.658 292.547 209.822 L 292.556 212.379 L 292.531 213.038 C 290.869 214.633 289.068 216.131 287.326 217.579 L 286.441 218.316 C 286.377 217.235 286.328 216.154 286.296 215.075 C 286.322 215.064 286.351 215.05 286.379 215.028 L 286.379 215.028 Z  M 292.025 205.531 C 292.422 205.551 292.536 205.608 292.569 205.642 C 292.769 205.847 292.662 207.503 292.641 208.143 L 292.559 208.194 L 292.395 208.342 C 290.434 210.126 288.406 211.97 286.266 213.609 C 286.246 212.486 286.239 211.362 286.248 210.238 C 286.329 210.215 286.397 210.178 286.461 210.124 C 288.249 208.596 290.095 207.079 291.945 205.616 C 291.98 205.588 292.005 205.558 292.025 205.531 L 292.025 205.531 Z  M 292.585 217.688 L 292.538 217.669 C 291.988 218.114 291.444 218.565 290.899 219.017 C 289.562 220.127 288.181 221.273 286.741 222.295 C 286.728 222.197 286.712 222.086 286.69 221.954 C 286.606 221.431 286.579 220.882 286.553 220.349 L 286.544 219.787 C 287.05 219.361 287.558 218.937 288.065 218.514 C 289.56 217.268 291.103 215.982 292.562 214.64 C 292.564 215.274 292.585 217.688 292.585 217.688 L 292.585 217.688 Z  M 293.801 219.873 L 293.743 208.899 C 293.742 208.652 293.772 208.328 293.805 207.968 C 293.918 206.723 294.058 205.175 293.267 204.598 C 292.99 204.397 292.532 204.304 291.822 204.304 C 291.474 204.304 291.114 204.326 290.794 204.346 C 290.54 204.362 290.312 204.377 290.134 204.377 L 290.083 204.476 L 290.083 204.476 L 290.083 204.476 L 290.022 204.376 L 289.953 204.474 C 289.903 199.279 289.83 194.089 289.749 188.892 C 289.743 188.512 289.438 188.311 289.141 188.311 C 288.972 188.311 288.812 188.375 288.704 188.485 C 288.601 188.591 288.547 188.732 288.55 188.896 C 288.63 194.059 288.703 199.219 288.753 204.383 C 288.503 204.386 288.254 204.387 288.005 204.387 C 287.57 204.387 287.137 204.381 286.691 204.353 C 286.597 204.347 286.498 204.346 286.399 204.346 L 285.748 204.357 C 285.541 204.359 285.374 204.452 285.271 204.619 C 285.193 204.723 285.153 204.833 285.149 204.954 C 284.949 211.002 285.108 217.163 285.636 223.788 C 285.659 224.079 285.878 224.38 286.239 224.38 C 286.24 224.38 286.241 224.38 286.242 224.38 C 286.634 224.354 287.026 224.346 287.419 224.346 C 287.946 224.346 288.474 224.362 289.001 224.379 L 289.035 224.38 C 289.079 226.104 289.108 227.83 289.139 229.555 C 289.184 232.202 289.229 234.938 289.334 237.629 C 289.348 238.009 289.656 238.207 289.953 238.207 C 290.123 238.207 290.281 238.143 290.388 238.033 C 290.489 237.928 290.54 237.785 290.533 237.621 C 290.43 234.932 290.383 232.197 290.338 229.553 C 290.31 227.849 290.28 226.146 290.229 224.406 L 290.61 224.409 C 290.834 224.409 291.058 224.406 291.282 224.397 L 291.437 224.395 L 292.165 224.408 C 292.76 224.408 293.411 224.34 293.736 223.833 C 294.128 223.221 293.992 221.94 293.884 220.911 C 293.842 220.509 293.803 220.143 293.801 219.873 L 293.801 219.873 Z " fill-rule="evenodd" fill="rgb(232,232,232)"/></g></svg>