<?xml version="1.0" encoding="UTF-8" standalone="no"?><!-- Generator: Gravit.io --><svg xmlns="http://www.w3.org/2000/svg" xmlns:xlink="http://www.w3.org/1999/xlink" style="isolation:isolate" viewBox="247.058 100 54.65 45.073" width="54.65pt" height="45.073pt"><defs><clipPath id="_clipPath_SHMghQbjrwQABNLzlAOvO8u8k3Jzzg8f"><rect x="247.058" y="100" width="54.65" height="45.073"/></clipPath></defs><g clip-path="url(#_clipPath_SHMghQbjrwQABNLzlAOvO8u8k3Jzzg8f)"><path d=" M 256.515 107.326 C 256.679 107.326 256.836 107.328 256.986 107.332 C 260.053 107.426 263.426 107.47 267.603 107.47 C 268.605 107.47 269.608 107.467 270.61 107.464 C 272.383 107.457 274.155 107.446 275.927 107.434 C 278.598 107.417 281.269 107.4 283.938 107.4 L 284.084 107.4 C 286.144 107.4 288.202 107.41 290.301 107.443 C 290.493 107.443 290.766 107.424 291.071 107.402 C 291.459 107.374 291.901 107.342 292.305 107.342 C 292.813 107.342 293.16 107.395 293.335 107.501 C 293.998 107.898 293.953 108.379 293.891 109.044 C 293.881 109.153 293.87 109.266 293.862 109.382 C 293.31 109.261 292.706 109.167 292.068 109.104 C 288.858 108.789 285.399 108.642 281.182 108.642 C 278.544 108.642 275.859 108.699 273.264 108.753 L 272.014 108.78 C 271.6 108.788 271.186 108.792 270.774 108.792 C 268.927 108.792 267.056 108.714 265.246 108.638 C 263.677 108.573 262.055 108.505 260.453 108.488 L 259.645 108.484 C 258.06 108.484 256.502 108.529 254.914 108.579 C 254.6 108.589 254.281 108.608 253.959 108.628 C 253.493 108.657 253.022 108.686 252.554 108.686 C 251.628 108.686 250.905 108.564 250.281 108.303 C 249.517 107.982 248.955 107.372 248.681 106.571 C 250.037 107.288 251.913 107.384 253.421 107.384 C 253.421 107.384 253.421 107.384 253.422 107.384 C 254.009 107.384 254.588 107.368 255.136 107.352 C 255.626 107.339 256.091 107.326 256.515 107.326 L 256.515 107.326 L 256.515 107.326 L 256.515 107.326 L 256.515 107.326 L 256.515 107.326 L 256.515 107.326 L 256.515 107.326 L 256.515 107.326 L 256.515 107.326 L 256.515 107.326 L 256.515 107.326 L 256.515 107.326 L 256.515 107.326 L 256.515 107.326 L 256.515 107.326 L 256.515 107.326 L 256.515 107.326 L 256.515 107.326 L 256.515 107.326 L 256.515 107.326 L 256.515 107.326 L 256.515 107.326 L 256.515 107.326 Z  M 250.459 104.462 C 251.102 104.202 251.972 104.08 253.198 104.08 C 253.798 104.08 254.409 104.108 254.995 104.135 C 255.537 104.159 256.057 104.183 256.523 104.183 L 256.773 104.18 C 258.222 104.15 259.67 104.137 261.118 104.137 C 264.039 104.137 266.923 104.186 270.354 104.261 L 273.551 104.333 C 276.693 104.406 279.944 104.481 283.142 104.508 C 283.964 104.515 284.787 104.519 285.609 104.519 C 286.852 104.519 288.093 104.51 289.335 104.488 C 289.598 104.483 289.96 104.44 290.356 104.393 C 290.858 104.333 291.428 104.266 291.907 104.266 C 292.272 104.266 292.538 104.304 292.72 104.382 C 293.677 104.796 293.705 105.467 293.6 106.366 C 293.164 106.308 292.606 106.29 291.882 106.273 C 289.666 106.222 287.277 106.198 284.365 106.198 C 282.911 106.198 281.456 106.204 280.002 106.211 C 278.479 106.218 276.956 106.229 275.434 106.24 C 272.792 106.259 270.149 106.278 267.509 106.278 C 262.397 106.278 258.261 106.203 254.489 106.041 C 253.562 106.001 252.636 105.958 251.71 105.902 C 251.022 105.861 249.998 105.385 249.931 104.973 C 249.893 104.743 250.197 104.568 250.459 104.462 L 250.459 104.462 L 250.459 104.462 L 250.459 104.462 L 250.459 104.462 L 250.459 104.462 L 250.459 104.462 L 250.459 104.462 L 250.459 104.462 L 250.459 104.462 L 250.459 104.462 L 250.459 104.462 L 250.459 104.462 L 250.459 104.462 L 250.459 104.462 L 250.459 104.462 L 250.459 104.462 L 250.459 104.462 L 250.459 104.462 L 250.459 104.462 L 250.459 104.462 L 250.459 104.462 L 250.459 104.462 L 250.459 104.462 Z  M 255.686 101.326 C 256.23 101.326 256.777 101.336 257.32 101.347 C 257.858 101.356 258.393 101.366 258.919 101.366 L 259.437 101.363 C 264.18 101.293 268.825 101.23 273.527 101.208 C 274.407 101.204 275.287 101.202 276.166 101.202 C 280.353 101.202 284.751 101.247 289.613 101.339 L 290.076 101.347 C 293.05 101.393 296.124 101.441 296.21 105.265 C 296.239 106.606 296.158 108.035 296.079 109.416 L 296.038 110.156 C 295.714 109.982 295.378 109.833 295.038 109.713 C 295.045 109.682 295.05 109.647 295.051 109.609 C 295.077 108.06 295.074 107.296 294.73 106.923 C 294.945 105.182 294.78 104.048 294.237 103.552 C 293.868 103.214 293.239 103.049 292.313 103.049 C 291.67 103.049 290.991 103.126 290.393 103.194 C 289.975 103.241 289.604 103.283 289.331 103.288 C 288.059 103.31 286.784 103.32 285.512 103.32 C 281.677 103.32 277.778 103.23 274.009 103.143 L 272.845 103.116 C 269.011 103.029 265.046 102.938 261.145 102.938 C 259.834 102.938 258.523 102.948 257.211 102.972 C 256.684 102.981 256.147 102.983 255.606 102.984 C 253.858 102.989 252.051 102.994 250.356 103.274 C 249.782 103.37 249.326 103.499 248.951 103.677 C 249.545 102.551 250.653 101.84 252.25 101.565 C 253.47 101.353 254.727 101.326 255.686 101.326 L 255.686 101.326 L 255.686 101.326 L 255.686 101.326 L 255.686 101.326 L 255.686 101.326 L 255.686 101.326 L 255.686 101.326 L 255.686 101.326 L 255.686 101.326 L 255.686 101.326 L 255.686 101.326 L 255.686 101.326 L 255.686 101.326 L 255.686 101.326 L 255.686 101.326 L 255.686 101.326 L 255.686 101.326 L 255.686 101.326 L 255.686 101.326 L 255.686 101.326 L 255.686 101.326 L 255.686 101.326 L 255.686 101.326 Z  M 289.647 129.304 C 289.33 129.304 288.999 129.242 288.662 129.119 C 287.568 128.723 287.033 127.813 287.231 126.686 C 287.445 125.467 288.537 124.205 289.991 124.205 C 290.139 124.205 290.288 124.218 290.426 124.242 C 291.219 124.508 291.773 124.986 292.029 125.624 C 292.295 126.286 292.213 127.086 291.798 127.877 C 291.315 128.797 290.551 129.304 289.647 129.304 L 289.647 129.304 L 289.647 129.304 L 289.647 129.304 L 289.647 129.304 L 289.647 129.304 L 289.647 129.304 L 289.647 129.304 L 289.647 129.304 L 289.647 129.304 L 289.647 129.304 L 289.647 129.304 L 289.647 129.304 L 289.647 129.304 L 289.647 129.304 L 289.647 129.304 L 289.647 129.304 L 289.647 129.304 L 289.647 129.304 L 289.647 129.304 L 289.647 129.304 L 289.647 129.304 L 289.647 129.304 L 289.647 129.304 Z  M 254.238 112.434 C 254.229 112.17 254.057 111.886 253.654 111.886 C 253.653 111.886 251.768 112.003 251.768 112.003 C 251.378 112.027 251.184 112.35 251.193 112.655 C 251.201 112.919 251.375 113.204 251.736 113.204 L 253.663 113.085 C 254.053 113.061 254.247 112.739 254.238 112.434 L 254.238 112.434 L 254.238 112.434 L 254.238 112.434 L 254.238 112.434 L 254.238 112.434 L 254.238 112.434 L 254.238 112.434 L 254.238 112.434 L 254.238 112.434 L 254.238 112.434 L 254.238 112.434 L 254.238 112.434 L 254.238 112.434 L 254.238 112.434 L 254.238 112.434 L 254.238 112.434 L 254.238 112.434 L 254.238 112.434 L 254.238 112.434 L 254.238 112.434 L 254.238 112.434 Z  M 259.63 112.336 C 259.618 112.075 259.452 111.811 259.048 111.811 C 259.046 111.811 256.826 112.008 256.826 112.008 C 256.438 112.043 256.243 112.381 256.257 112.683 C 256.27 112.993 256.487 113.21 256.783 113.21 L 259.06 113.011 C 259.447 112.976 259.643 112.637 259.63 112.336 L 259.63 112.336 L 259.63 112.336 L 259.63 112.336 L 259.63 112.336 L 259.63 112.336 L 259.63 112.336 L 259.63 112.336 L 259.63 112.336 L 259.63 112.336 L 259.63 112.336 L 259.63 112.336 L 259.63 112.336 L 259.63 112.336 L 259.63 112.336 L 259.63 112.336 L 259.63 112.336 L 259.63 112.336 L 259.63 112.336 L 259.63 112.336 L 259.63 112.336 Z  M 264.29 112.624 C 264.293 112.323 264.095 112.014 263.709 112.005 C 263.52 112.001 263.332 111.999 263.144 111.999 C 262.85 111.999 262.556 112.004 262.261 112.015 C 261.874 112.028 261.677 112.342 261.683 112.644 C 261.687 112.919 261.864 113.215 262.243 113.215 L 262.269 113.215 C 262.561 113.204 262.853 113.199 263.144 113.199 C 263.331 113.199 263.721 113.205 263.721 113.205 C 264.09 113.205 264.286 112.913 264.29 112.624 L 264.29 112.624 L 264.29 112.624 L 264.29 112.624 L 264.29 112.624 L 264.29 112.624 L 264.29 112.624 L 264.29 112.624 L 264.29 112.624 L 264.29 112.624 L 264.29 112.624 L 264.29 112.624 L 264.29 112.624 L 264.29 112.624 L 264.29 112.624 L 264.29 112.624 L 264.29 112.624 L 264.29 112.624 L 264.29 112.624 L 264.29 112.624 Z  M 269.756 112.555 C 269.749 112.286 269.574 111.997 269.171 111.997 C 269.17 111.997 269.17 111.997 269.169 111.997 C 268.588 112.026 268.007 112.041 267.425 112.041 L 267.288 112.04 C 266.907 112.04 266.708 112.341 266.707 112.638 C 266.707 112.936 266.906 113.239 267.29 113.241 L 267.425 113.241 C 268.011 113.241 268.595 113.226 269.179 113.197 C 269.567 113.177 269.763 112.859 269.756 112.555 L 269.756 112.555 L 269.756 112.555 L 269.756 112.555 L 269.756 112.555 L 269.756 112.555 L 269.756 112.555 L 269.756 112.555 L 269.756 112.555 L 269.756 112.555 L 269.756 112.555 L 269.756 112.555 L 269.756 112.555 L 269.756 112.555 L 269.756 112.555 L 269.756 112.555 L 269.756 112.555 L 269.756 112.555 L 269.756 112.555 Z  M 274.998 112.763 C 275.013 112.461 274.817 112.121 274.43 112.085 C 273.824 112.028 273.208 112 272.6 112 L 272.425 112 C 272.041 112.004 271.842 112.309 271.843 112.608 C 271.844 112.903 272.043 113.201 272.427 113.201 L 272.6 113.2 C 273.202 113.2 273.811 113.228 274.41 113.284 L 274.475 113.287 C 274.819 113.287 274.986 113.024 274.998 112.763 L 274.998 112.763 L 274.998 112.763 L 274.998 112.763 L 274.998 112.763 L 274.998 112.763 L 274.998 112.763 L 274.998 112.763 L 274.998 112.763 L 274.998 112.763 L 274.998 112.763 L 274.998 112.763 L 274.998 112.763 L 274.998 112.763 L 274.998 112.763 L 274.998 112.763 L 274.998 112.763 L 274.998 112.763 Z  M 279.682 113.242 L 279.708 113.242 C 280.085 113.242 280.263 112.946 280.268 112.672 C 280.273 112.37 280.076 112.056 279.689 112.041 C 279.498 112.035 279.31 112.017 279.12 111.998 C 278.878 111.975 278.636 111.952 278.394 111.952 C 278.152 111.952 277.937 111.976 277.737 112.024 C 277.44 112.096 277.272 112.339 277.309 112.644 C 277.342 112.921 277.554 113.202 277.896 113.202 C 277.946 113.202 277.998 113.195 278.05 113.183 C 278.178 113.152 278.318 113.137 278.478 113.137 C 278.693 113.137 278.913 113.163 279.131 113.19 C 279.316 113.212 279.502 113.235 279.682 113.242 L 279.682 113.242 L 279.682 113.242 L 279.682 113.242 L 279.682 113.242 L 279.682 113.242 L 279.682 113.242 L 279.682 113.242 L 279.682 113.242 L 279.682 113.242 L 279.682 113.242 L 279.682 113.242 L 279.682 113.242 L 279.682 113.242 L 279.682 113.242 L 279.682 113.242 L 279.682 113.242 Z  M 282.692 113.089 C 283.036 113.099 283.381 113.103 283.725 113.103 C 284.254 113.103 284.782 113.092 285.311 113.07 C 285.699 113.053 285.895 112.737 285.889 112.434 C 285.883 112.162 285.707 111.87 285.304 111.87 L 285.303 111.87 C 284.776 111.892 284.25 111.903 283.725 111.903 C 283.383 111.903 283.04 111.899 282.678 111.889 C 282.295 111.889 282.116 112.188 282.112 112.466 C 282.108 112.767 282.307 113.079 282.692 113.089 L 282.692 113.089 L 282.692 113.089 L 282.692 113.089 L 282.692 113.089 L 282.692 113.089 L 282.692 113.089 L 282.692 113.089 L 282.692 113.089 L 282.692 113.089 L 282.692 113.089 L 282.692 113.089 L 282.692 113.089 L 282.692 113.089 L 282.692 113.089 L 282.692 113.089 Z  M 288.575 113.08 L 288.576 113.08 C 288.774 113.071 288.972 113.067 289.169 113.067 C 289.639 113.067 290.115 113.091 290.587 113.137 L 290.653 113.141 C 290.995 113.141 291.161 112.879 291.174 112.619 C 291.188 112.317 290.995 111.976 290.606 111.938 C 290.129 111.891 289.644 111.867 289.169 111.867 C 288.969 111.867 288.769 111.871 288.568 111.879 C 288.181 111.895 287.984 112.21 287.99 112.514 C 287.996 112.786 288.172 113.08 288.575 113.08 L 288.575 113.08 L 288.575 113.08 L 288.575 113.08 L 288.575 113.08 L 288.575 113.08 L 288.575 113.08 L 288.575 113.08 L 288.575 113.08 L 288.575 113.08 L 288.575 113.08 L 288.575 113.08 L 288.575 113.08 L 288.575 113.08 L 288.575 113.08 Z  M 293.743 114.798 C 293.848 114.987 294.023 115.096 294.226 115.096 C 294.444 115.096 294.667 114.967 294.78 114.776 C 294.887 114.595 294.888 114.39 294.782 114.196 C 294.504 113.69 294.154 113.219 293.742 112.794 C 293.628 112.676 293.487 112.613 293.338 112.613 C 293.101 112.613 292.866 112.777 292.768 113.01 C 292.675 113.229 292.722 113.465 292.893 113.641 C 293.226 113.985 293.504 114.363 293.743 114.798 L 293.743 114.798 L 293.743 114.798 L 293.743 114.798 L 293.743 114.798 L 293.743 114.798 L 293.743 114.798 L 293.743 114.798 L 293.743 114.798 L 293.743 114.798 L 293.743 114.798 L 293.743 114.798 L 293.743 114.798 L 293.743 114.798 Z  M 294.364 116.727 C 294.194 116.727 294.036 116.791 293.931 116.901 C 293.829 117.007 293.779 117.15 293.786 117.332 L 293.858 119.011 C 293.874 119.391 294.183 119.589 294.479 119.589 C 294.649 119.589 294.808 119.525 294.913 119.415 C 295.015 119.309 295.064 119.166 295.058 119.003 L 294.985 117.306 C 294.97 116.926 294.661 116.727 294.364 116.727 L 294.364 116.727 L 294.364 116.727 L 294.364 116.727 L 294.364 116.727 L 294.364 116.727 L 294.364 116.727 L 294.364 116.727 L 294.364 116.727 L 294.364 116.727 L 294.364 116.727 L 294.364 116.727 L 294.364 116.727 Z  M 255.511 140.287 L 254.064 140.211 C 253.697 140.211 253.522 140.499 253.515 140.767 C 253.507 141.072 253.702 141.391 254.092 141.412 L 255.563 141.489 C 255.932 141.489 256.106 141.2 256.114 140.932 C 256.122 140.627 255.927 140.308 255.511 140.287 L 255.511 140.287 L 255.511 140.287 L 255.511 140.287 L 255.511 140.287 L 255.511 140.287 L 255.511 140.287 L 255.511 140.287 L 255.511 140.287 L 255.511 140.287 L 255.511 140.287 L 255.511 140.287 Z  M 261.019 140.241 L 258.385 140.152 C 258.006 140.152 257.828 140.449 257.823 140.724 C 257.818 141.026 258.015 141.339 258.402 141.352 L 261.037 141.441 C 261.416 141.441 261.594 141.144 261.599 140.869 C 261.603 140.566 261.406 140.254 261.019 140.241 L 261.019 140.241 L 261.019 140.241 L 261.019 140.241 L 261.019 140.241 L 261.019 140.241 L 261.019 140.241 L 261.019 140.241 L 261.019 140.241 L 261.019 140.241 L 261.019 140.241 Z  M 266.568 140.15 C 266.564 140.15 266.56 140.151 266.556 140.151 C 266.154 140.199 265.747 140.223 265.346 140.223 C 265.017 140.223 264.686 140.207 264.288 140.171 C 263.946 140.171 263.78 140.434 263.768 140.693 C 263.753 140.995 263.946 141.336 264.335 141.374 C 264.673 141.407 265.01 141.423 265.346 141.423 C 265.347 141.423 265.347 141.423 265.347 141.423 C 265.755 141.423 266.17 141.398 266.579 141.349 C 266.97 141.303 267.16 140.954 267.143 140.65 C 267.124 140.352 266.926 140.15 266.568 140.15 L 266.568 140.15 L 266.568 140.15 L 266.568 140.15 L 266.568 140.15 L 266.568 140.15 L 266.568 140.15 L 266.568 140.15 L 266.568 140.15 L 266.568 140.15 Z  M 271.527 140.082 L 269.894 140.146 C 269.506 140.162 269.31 140.476 269.315 140.779 C 269.32 141.053 269.498 141.347 269.873 141.347 L 271.534 141.282 C 271.922 141.267 272.118 140.952 272.112 140.648 C 272.106 140.375 271.931 140.082 271.527 140.082 L 271.527 140.082 L 271.527 140.082 L 271.527 140.082 L 271.527 140.082 L 271.527 140.082 L 271.527 140.082 L 271.527 140.082 L 271.527 140.082 Z  M 277.015 140.273 L 275.186 140.271 C 274.804 140.271 274.603 140.573 274.603 140.871 C 274.603 141.169 274.804 141.471 275.186 141.472 L 277.016 141.474 C 277.397 141.474 277.598 141.172 277.598 140.874 C 277.598 140.576 277.397 140.274 277.015 140.273 L 277.015 140.273 L 277.015 140.273 L 277.015 140.273 L 277.015 140.273 L 277.015 140.273 L 277.015 140.273 L 277.015 140.273 Z  M 282.162 140.151 C 282.114 140.151 282.065 140.157 282.018 140.168 C 281.509 140.282 280.975 140.34 280.429 140.34 C 280.143 140.34 279.857 140.324 279.5 140.288 C 279.165 140.288 279.001 140.545 278.987 140.8 C 278.971 141.103 279.163 141.448 279.553 141.492 C 279.843 141.523 280.137 141.539 280.431 141.539 C 281.062 141.539 281.7 141.468 282.327 141.328 C 282.624 141.261 282.793 141.022 282.76 140.72 C 282.728 140.444 282.509 140.151 282.162 140.151 L 282.162 140.151 L 282.162 140.151 L 282.162 140.151 L 282.162 140.151 L 282.162 140.151 L 282.162 140.151 Z  M 286.865 140.236 C 286.863 140.236 286.861 140.236 286.859 140.236 C 286.737 140.246 286.615 140.251 286.494 140.251 C 286.209 140.251 285.924 140.226 285.639 140.202 C 285.349 140.177 285.058 140.152 284.767 140.152 C 284.641 140.152 284.514 140.157 284.387 140.168 C 283.999 140.203 283.804 140.542 283.817 140.843 C 283.829 141.104 283.994 141.368 284.398 141.368 C 284.4 141.368 284.402 141.368 284.404 141.368 C 284.525 141.357 284.646 141.352 284.767 141.352 C 285.053 141.352 285.337 141.377 285.622 141.401 C 285.912 141.426 286.203 141.451 286.494 141.451 C 286.622 141.451 286.749 141.446 286.877 141.435 C 287.265 141.4 287.46 141.061 287.446 140.76 C 287.435 140.499 287.269 140.236 286.865 140.236 L 286.865 140.236 L 286.865 140.236 L 286.865 140.236 L 286.865 140.236 L 286.865 140.236 Z  M 291.032 141.159 C 291.034 141.159 291.036 141.159 291.038 141.159 L 291.137 141.255 C 291.516 141.255 291.693 140.958 291.698 140.683 C 291.703 140.38 291.507 140.067 291.032 140.053 C 290.713 140.053 290.399 140.11 290.097 140.165 C 289.803 140.219 289.499 140.275 289.199 140.275 L 289.199 140.369 C 289.197 140.369 289.195 140.369 289.193 140.369 L 289.095 140.273 C 288.716 140.273 288.538 140.57 288.533 140.846 C 288.528 141.148 288.726 141.46 289.112 141.474 L 289.199 141.475 C 289.519 141.475 289.832 141.417 290.135 141.362 C 290.429 141.309 290.732 141.253 291.032 141.253 L 291.032 141.159 L 291.032 141.159 L 291.032 141.159 L 291.032 141.159 L 291.032 141.159 Z  M 292.968 140.909 L 293.02 140.907 C 293.886 140.84 294.597 140.403 295.021 139.677 C 295.133 139.488 295.138 139.285 295.034 139.105 C 294.923 138.911 294.698 138.78 294.474 138.78 C 294.269 138.78 294.096 138.884 293.986 139.071 C 293.764 139.45 293.416 139.675 293.005 139.707 C 292.614 139.738 292.421 140.064 292.434 140.371 C 292.445 140.688 292.665 140.909 292.968 140.909 L 292.968 140.909 L 292.968 140.909 L 292.968 140.909 Z  M 294.641 137.474 C 294.934 137.474 295.253 137.279 295.295 136.908 L 295.448 135.539 C 295.467 135.376 295.426 135.233 295.331 135.127 C 295.23 135.015 295.075 134.951 294.904 134.951 C 294.61 134.951 294.291 135.145 294.249 135.519 L 294.096 136.885 C 294.078 137.049 294.118 137.191 294.214 137.298 C 294.313 137.41 294.469 137.474 294.641 137.474 L 294.641 137.474 L 294.641 137.474 Z  M 298.364 123.38 C 298.557 123.744 298.602 124.194 298.644 124.629 C 298.666 124.849 298.687 125.066 298.727 125.271 C 298.779 125.543 298.98 125.712 299.25 125.712 C 299.445 125.712 299.642 125.62 299.765 125.471 C 299.88 125.332 299.924 125.153 299.889 124.967 C 299.848 124.755 299.819 124.538 299.792 124.32 C 299.706 123.645 299.617 122.947 299.134 122.393 C 298.512 121.681 297.596 121.589 296.866 121.589 C 296.707 121.589 296.549 121.594 296.394 121.601 C 296.006 121.619 295.81 121.936 295.816 122.241 C 295.823 122.511 295.999 122.802 296.37 122.802 L 296.479 122.797 C 296.633 122.79 296.797 122.782 296.963 122.782 C 297.469 122.782 298.086 122.85 298.364 123.38 L 298.364 123.38 Z  M 290.988 123.191 C 290.917 123.137 290.834 123.101 290.756 123.088 C 290.706 123.072 290.655 123.061 290.573 123.061 C 290.554 123.061 290.531 123.062 290.507 123.063 C 290.342 123.043 290.177 123.034 290.012 123.034 C 288.24 123.034 286.714 124.108 286.213 125.708 C 285.579 127.73 286.449 129.607 288.329 130.272 C 288.77 130.428 289.214 130.508 289.647 130.508 C 291.17 130.508 292.451 129.55 293.072 127.946 C 293.474 126.913 293.487 125.921 293.113 125.078 C 292.739 124.231 291.995 123.574 290.988 123.191 L 290.988 123.191 L 290.988 123.191 L 290.988 123.191 L 290.988 123.191 L 290.988 123.191 L 290.988 123.191 L 290.988 123.191 L 290.988 123.191 L 290.988 123.191 L 290.988 123.191 L 290.988 123.191 L 290.988 123.191 L 290.988 123.191 L 290.988 123.191 L 290.988 123.191 L 290.988 123.191 L 290.988 123.191 L 290.988 123.191 L 290.988 123.191 L 290.988 123.191 L 290.988 123.191 L 290.988 123.191 L 290.988 123.191 Z  M 296.799 132.161 C 296.794 132.161 296.789 132.161 296.784 132.161 C 296.288 132.171 295.732 132.199 295.139 132.228 C 294.265 132.272 293.274 132.321 292.285 132.321 C 289.644 132.321 285.99 132 284.759 129.225 C 284.186 127.934 284.207 126.524 284.827 124.788 C 285.699 122.346 287.222 121.17 289.62 121.086 C 290.447 121.057 291.285 121.015 292.127 120.972 C 293.631 120.896 295.185 120.818 296.697 120.818 C 297.255 120.818 297.81 120.828 298.343 120.851 C 300.967 121.439 300.653 124.912 300.446 127.21 L 300.399 127.747 L 300.369 128.161 C 300.275 129.522 300.134 131.581 298.774 132.117 C 298.609 132.182 298.374 132.213 298.056 132.213 C 297.831 132.213 297.598 132.198 297.379 132.184 C 297.186 132.172 297.006 132.161 296.799 132.161 L 296.799 132.161 L 296.799 132.161 L 296.799 132.161 L 296.799 132.161 L 296.799 132.161 L 296.799 132.161 L 296.799 132.161 L 296.799 132.161 L 296.799 132.161 L 296.799 132.161 L 296.799 132.161 L 296.799 132.161 L 296.799 132.161 L 296.799 132.161 L 296.799 132.161 L 296.799 132.161 L 296.799 132.161 L 296.799 132.161 L 296.799 132.161 L 296.799 132.161 L 296.799 132.161 L 296.799 132.161 L 296.799 132.161 Z  M 277.124 143.904 C 275.043 143.885 272.928 143.817 270.881 143.751 C 268.524 143.676 266.088 143.597 263.69 143.593 L 263.571 143.593 C 262.884 143.593 262.199 143.603 261.518 143.614 C 260.842 143.624 260.169 143.634 259.497 143.634 C 257.669 143.634 255.509 143.565 253.342 143.049 C 251.832 142.69 250.814 141.913 250.156 140.612 C 250.358 140.664 250.561 140.691 250.772 140.693 C 251.148 140.693 251.348 140.396 251.349 140.102 C 251.351 139.803 251.151 139.497 250.767 139.493 C 250.411 139.489 250.128 139.381 249.875 139.153 C 249.785 139.072 249.681 139.024 249.562 139.008 C 249.424 138.504 249.307 137.976 249.191 137.43 C 248.721 135.193 248.464 132.835 248.404 130.221 C 248.366 128.482 248.435 126.718 248.502 125.011 C 248.573 123.167 248.648 121.26 248.587 119.375 C 248.551 118.224 248.493 117.062 248.435 115.895 C 248.384 114.865 248.332 113.831 248.295 112.797 C 248.38 112.849 248.466 112.9 248.557 112.944 C 248.646 112.988 248.739 113.011 248.832 113.011 C 249.114 113.011 249.377 112.793 249.444 112.504 C 249.503 112.251 249.39 112.02 249.148 111.901 C 248.825 111.742 248.519 111.566 248.257 111.446 C 248.233 110.338 248.238 109.336 248.269 108.392 C 249.161 109.389 250.647 109.883 252.803 109.901 L 253.992 109.906 C 255.198 109.906 256.4 109.893 257.602 109.88 C 258.8 109.867 259.998 109.854 261.197 109.854 C 263.015 109.854 264.516 109.885 265.92 109.949 C 266.894 109.994 267.916 110.015 269.046 110.015 C 270.855 110.015 272.694 109.958 274.472 109.904 C 275.465 109.873 276.458 109.842 277.451 109.821 C 278.473 109.799 279.495 109.788 280.519 109.788 C 284.106 109.788 287.627 109.929 290.98 110.206 L 291.55 110.25 C 293.088 110.364 294.678 110.482 295.918 111.484 C 297.41 112.691 297.513 114.083 297.498 116.07 L 297.488 117.03 C 297.479 117.901 297.47 118.771 297.478 119.642 L 297.03 119.639 C 295.827 119.639 294.596 119.699 293.406 119.756 C 292.438 119.803 291.472 119.85 290.512 119.866 C 288.339 119.904 286.622 119.933 285.107 121.757 C 283.546 123.64 282.821 126.428 283.304 128.695 C 283.653 130.333 284.594 131.573 286.025 132.28 C 288.12 133.315 290.521 133.402 292.802 133.402 L 293.466 133.4 L 294.409 133.39 L 294.409 133.435 C 294.409 133.818 294.711 134.018 295.009 134.018 C 295.307 134.018 295.608 133.818 295.608 133.435 L 295.608 133.37 L 297.054 133.346 C 296.959 134.347 296.926 135.363 296.894 136.347 C 296.863 137.259 296.832 138.204 296.752 139.129 C 296.469 142.394 294.193 143.25 290.863 143.53 C 287.71 143.795 284.232 143.918 279.92 143.918 C 278.987 143.918 278.056 143.913 277.124 143.904 L 277.124 143.904 L 277.124 143.904 L 277.124 143.904 L 277.124 143.904 L 277.124 143.904 L 277.124 143.904 L 277.124 143.904 L 277.124 143.904 L 277.124 143.904 L 277.124 143.904 L 277.124 143.904 L 277.124 143.904 L 277.124 143.904 L 277.124 143.904 L 277.124 143.904 L 277.124 143.904 L 277.124 143.904 L 277.124 143.904 L 277.124 143.904 L 277.124 143.904 L 277.124 143.904 L 277.124 143.904 L 277.124 143.904 Z  M 301.704 125.078 C 301.742 122.413 301.542 120.322 298.686 119.694 C 298.694 119.143 298.729 118.559 298.765 117.962 C 298.864 116.29 298.967 114.562 298.556 113.162 C 298.298 112.285 297.836 111.555 297.196 110.929 C 297.278 109.155 297.359 107.357 297.399 105.582 C 297.443 103.691 297.017 102.301 296.131 101.451 C 295.127 100.488 293.678 100.273 292.393 100.191 C 290.476 100.068 288.512 100.063 286.613 100.058 C 285.838 100.056 285.063 100.054 284.291 100.044 C 281.835 100.014 279.379 100 276.923 100 C 273.778 100 270.635 100.022 267.49 100.056 C 264.967 100.084 262.442 100.119 259.919 100.155 L 259.363 100.159 C 258.769 100.159 258.166 100.148 257.56 100.135 C 256.945 100.123 256.327 100.111 255.711 100.111 C 254.246 100.111 253.144 100.183 252.14 100.344 C 249.521 100.764 247.694 102.476 247.374 104.794 L 247.457 104.857 L 247.339 104.902 C 246.906 108.178 247.064 111.568 247.218 114.846 C 247.271 115.986 247.324 117.122 247.353 118.251 C 247.406 120.298 247.363 122.38 247.321 124.393 C 247.222 129.231 247.117 134.233 248.347 139.087 C 249.156 142.287 249.947 143.475 253.029 144.208 C 255.365 144.764 257.676 144.839 259.627 144.839 C 260.403 144.839 261.184 144.826 261.969 144.812 L 262.119 144.809 C 262.942 144.795 263.766 144.789 264.589 144.789 C 267.393 144.789 270.242 144.861 272.997 144.931 C 275.754 145.001 278.604 145.073 281.41 145.073 C 283.428 145.073 285.241 145.037 286.954 144.961 C 287.436 144.939 287.93 144.928 288.429 144.916 C 291.436 144.848 294.546 144.777 296.765 142.562 C 298.347 140.982 298.291 138.192 298.241 135.731 C 298.224 134.87 298.207 134.055 298.258 133.328 C 298.367 133.33 298.48 133.334 298.595 133.339 C 298.74 133.345 298.889 133.351 299.036 133.351 C 299.391 133.351 299.845 133.318 300.216 133.06 C 301.74 132.002 301.717 128.011 301.705 125.867 C 301.703 125.563 301.701 125.295 301.704 125.078 L 301.704 125.078 L 301.704 125.078 L 301.704 125.078 L 301.704 125.078 L 301.704 125.078 L 301.704 125.078 L 301.704 125.078 L 301.704 125.078 L 301.704 125.078 L 301.704 125.078 L 301.704 125.078 L 301.704 125.078 L 301.704 125.078 L 301.704 125.078 L 301.704 125.078 L 301.704 125.078 L 301.704 125.078 L 301.704 125.078 L 301.704 125.078 L 301.704 125.078 L 301.704 125.078 L 301.704 125.078 L 301.704 125.078 Z  M 299.067 126.465 C 298.769 126.465 298.468 126.665 298.468 127.101 C 298.468 127.484 298.769 127.684 299.067 127.684 C 299.223 127.684 299.367 127.633 299.477 127.539 C 299.602 127.432 299.667 127.28 299.667 127.048 C 299.667 126.665 299.365 126.465 299.067 126.465 Z " fill-rule="evenodd" fill="rgb(232,232,232)"/></g></svg>