<?xml version="1.0" encoding="UTF-8" standalone="no"?><!-- Generator: Gravit.io --><svg xmlns="http://www.w3.org/2000/svg" xmlns:xlink="http://www.w3.org/1999/xlink" style="isolation:isolate" viewBox="269.675 179.964 54.65 45.073" width="54.65pt" height="45.073pt"><defs><clipPath id="_clipPath_5fZnBbvTT2a7uZ8sPY6XLPC03daeo2x7"><rect x="269.675" y="179.964" width="54.65" height="45.073"/></clipPath></defs><g clip-path="url(#_clipPath_5fZnBbvTT2a7uZ8sPY6XLPC03daeo2x7)"><path d=" M 319.416 212.124 C 319.411 212.124 319.406 212.124 319.401 212.124 C 318.905 212.134 318.349 212.162 317.756 212.191 C 316.882 212.235 315.891 212.284 314.902 212.284 C 312.261 212.284 308.607 211.963 307.376 209.188 C 306.803 207.897 306.824 206.487 307.444 204.751 C 308.316 202.309 309.839 201.133 312.237 201.049 C 313.064 201.02 313.902 200.978 314.744 200.935 C 316.248 200.859 317.802 200.781 319.314 200.781 C 319.872 200.781 320.427 200.791 320.96 200.814 C 323.584 201.402 323.27 204.875 323.063 207.173 L 323.016 207.71 L 322.986 208.124 C 322.892 209.485 322.751 211.544 321.391 212.08 C 321.226 212.145 320.991 212.176 320.673 212.176 C 320.448 212.176 320.215 212.161 319.996 212.147 C 319.803 212.135 319.623 212.124 319.416 212.124 Z  M 279.132 187.289 C 279.296 187.289 279.453 187.291 279.603 187.295 C 282.67 187.389 286.043 187.433 290.22 187.433 C 291.222 187.433 292.225 187.43 293.227 187.427 C 295 187.42 296.772 187.409 298.544 187.397 C 301.215 187.38 303.886 187.363 306.555 187.363 L 306.701 187.363 C 308.761 187.363 310.819 187.373 312.918 187.406 C 313.11 187.406 313.383 187.387 313.688 187.365 C 314.076 187.337 314.518 187.305 314.922 187.305 C 315.43 187.305 315.777 187.358 315.952 187.464 C 316.615 187.861 316.57 188.342 316.508 189.007 C 316.498 189.116 316.487 189.229 316.479 189.345 C 315.927 189.224 315.323 189.13 314.685 189.067 C 311.475 188.752 308.016 188.605 303.799 188.605 C 301.161 188.605 298.476 188.662 295.881 188.716 L 294.631 188.743 C 294.217 188.751 293.803 188.755 293.391 188.755 C 291.544 188.755 289.673 188.677 287.863 188.601 C 286.294 188.536 284.672 188.468 283.07 188.451 L 282.262 188.447 C 280.677 188.447 279.119 188.492 277.531 188.542 C 277.217 188.552 276.898 188.571 276.576 188.591 C 276.11 188.62 275.639 188.649 275.171 188.649 C 274.245 188.649 273.522 188.527 272.898 188.266 C 272.134 187.945 271.572 187.335 271.298 186.534 C 272.654 187.251 274.53 187.347 276.038 187.347 C 276.038 187.347 276.038 187.347 276.039 187.347 C 276.626 187.347 277.205 187.331 277.753 187.315 C 278.243 187.302 278.708 187.289 279.132 187.289 Z  M 273.076 184.425 C 273.719 184.165 274.589 184.043 275.815 184.043 C 276.415 184.043 277.026 184.071 277.612 184.098 C 278.154 184.122 278.674 184.146 279.14 184.146 L 279.39 184.143 C 280.839 184.113 282.287 184.1 283.735 184.1 C 286.656 184.1 289.54 184.149 292.971 184.224 L 296.168 184.296 C 299.31 184.369 302.561 184.444 305.759 184.471 C 306.581 184.478 307.404 184.482 308.226 184.482 C 309.469 184.482 310.71 184.473 311.952 184.451 C 312.215 184.446 312.577 184.403 312.973 184.356 C 313.475 184.296 314.045 184.229 314.524 184.229 C 314.889 184.229 315.155 184.267 315.337 184.345 C 316.294 184.759 316.322 185.43 316.217 186.329 C 315.781 186.271 315.223 186.253 314.499 186.236 C 312.283 186.185 309.894 186.161 306.982 186.161 C 305.528 186.161 304.073 186.167 302.619 186.174 C 301.096 186.181 299.573 186.192 298.051 186.203 C 295.409 186.222 292.766 186.241 290.126 186.241 C 285.014 186.241 280.878 186.166 277.106 186.004 C 276.179 185.964 275.253 185.921 274.327 185.865 C 273.639 185.824 272.615 185.348 272.548 184.936 C 272.51 184.706 272.814 184.531 273.076 184.425 Z  M 278.303 181.29 C 278.847 181.29 279.394 181.3 279.937 181.31 C 280.475 181.32 281.01 181.33 281.536 181.33 L 282.054 181.326 C 286.797 181.257 291.442 181.194 296.144 181.172 C 297.024 181.167 297.904 181.165 298.783 181.165 C 302.97 181.165 307.368 181.21 312.23 181.303 L 312.693 181.311 C 315.667 181.357 318.741 181.405 318.827 185.228 C 318.856 186.569 318.775 187.998 318.696 189.379 L 318.655 190.119 C 318.331 189.945 317.995 189.796 317.655 189.676 C 317.662 189.645 317.667 189.61 317.668 189.572 C 317.694 188.023 317.691 187.259 317.347 186.886 C 317.562 185.145 317.397 184.011 316.854 183.515 C 316.485 183.177 315.856 183.012 314.93 183.012 C 314.287 183.012 313.608 183.089 313.01 183.157 C 312.592 183.204 312.221 183.246 311.948 183.251 C 310.676 183.273 309.401 183.283 308.129 183.283 C 304.294 183.283 300.395 183.193 296.626 183.106 L 295.462 183.079 C 291.628 182.992 287.663 182.901 283.762 182.901 C 282.451 182.901 281.14 182.911 279.828 182.935 C 279.301 182.944 278.764 182.946 278.223 182.947 C 276.475 182.952 274.668 182.957 272.973 183.237 C 272.399 183.333 271.943 183.462 271.568 183.64 C 272.162 182.514 273.27 181.804 274.867 181.528 C 276.087 181.317 277.344 181.29 278.303 181.29 Z  M 299.741 223.867 C 297.66 223.848 295.545 223.78 293.498 223.714 C 291.141 223.639 288.705 223.56 286.307 223.556 L 286.188 223.556 C 285.501 223.556 284.816 223.566 284.135 223.577 C 283.459 223.587 282.786 223.597 282.114 223.597 C 280.286 223.597 278.126 223.528 275.959 223.012 C 274.449 222.653 273.431 221.876 272.773 220.575 C 272.975 220.627 273.178 220.654 273.389 220.656 C 273.765 220.656 273.965 220.359 273.966 220.065 C 273.968 219.766 273.768 219.46 273.384 219.456 C 273.028 219.452 272.745 219.344 272.492 219.116 C 272.402 219.035 272.298 218.987 272.179 218.971 C 272.041 218.467 271.924 217.939 271.808 217.393 C 271.338 215.156 271.081 212.798 271.021 210.184 C 270.983 208.445 271.052 206.681 271.119 204.974 C 271.19 203.13 271.265 201.223 271.204 199.338 C 271.168 198.187 271.11 197.025 271.052 195.858 C 271.001 194.828 270.949 193.794 270.912 192.76 C 270.997 192.812 271.083 192.863 271.174 192.907 C 271.263 192.951 271.356 192.974 271.449 192.974 C 271.731 192.974 271.994 192.756 272.061 192.467 C 272.12 192.214 272.007 191.983 271.765 191.864 C 271.442 191.705 271.136 191.529 270.874 191.409 C 270.85 190.301 270.855 189.299 270.886 188.355 C 271.778 189.352 273.264 189.846 275.42 189.864 L 276.609 189.869 C 277.815 189.869 279.017 189.856 280.219 189.843 C 281.417 189.83 282.615 189.817 283.814 189.817 C 285.632 189.817 287.133 189.848 288.537 189.912 C 289.511 189.957 290.533 189.978 291.663 189.978 C 293.472 189.978 295.311 189.921 297.089 189.867 C 298.082 189.836 299.075 189.805 300.068 189.784 C 301.09 189.762 302.112 189.751 303.136 189.751 C 306.723 189.751 310.244 189.892 313.597 190.169 L 314.167 190.213 C 315.705 190.327 317.295 190.445 318.535 191.447 C 320.027 192.654 320.13 194.046 320.115 196.033 L 320.105 196.993 C 320.096 197.864 320.087 198.734 320.095 199.605 L 319.647 199.602 C 318.444 199.602 317.213 199.662 316.023 199.719 C 315.055 199.766 314.089 199.813 313.129 199.829 C 310.956 199.867 309.239 199.896 307.724 201.72 C 306.163 203.603 305.438 206.391 305.921 208.658 C 306.27 210.296 307.211 211.536 308.642 212.243 C 310.737 213.278 313.138 213.365 315.419 213.365 L 316.083 213.363 L 317.026 213.353 L 317.026 213.398 C 317.026 213.781 317.328 213.981 317.626 213.981 C 317.924 213.981 318.225 213.781 318.225 213.398 L 318.225 213.333 L 319.671 213.309 C 319.576 214.31 319.543 215.326 319.511 216.31 C 319.48 217.222 319.449 218.167 319.369 219.092 C 319.086 222.357 316.81 223.213 313.48 223.493 C 310.327 223.758 306.849 223.881 302.537 223.881 C 301.604 223.881 300.673 223.876 299.741 223.867 Z  M 324.321 205.041 C 324.359 202.376 324.159 200.285 321.303 199.657 C 321.311 199.106 321.346 198.522 321.382 197.925 C 321.481 196.253 321.584 194.525 321.173 193.125 C 320.915 192.248 320.453 191.518 319.813 190.892 C 319.895 189.118 319.976 187.32 320.016 185.545 C 320.06 183.654 319.634 182.264 318.748 181.414 C 317.744 180.451 316.295 180.237 315.01 180.155 C 313.093 180.032 311.129 180.027 309.23 180.022 C 308.455 180.02 307.68 180.018 306.908 180.008 C 304.452 179.977 301.996 179.964 299.54 179.964 C 296.395 179.964 293.252 179.986 290.107 180.02 C 287.584 180.047 285.059 180.083 282.536 180.119 L 281.98 180.123 C 281.386 180.123 280.783 180.111 280.177 180.099 C 279.562 180.087 278.944 180.075 278.328 180.075 C 276.863 180.075 275.761 180.147 274.757 180.308 C 272.138 180.727 270.311 182.439 269.991 184.757 L 270.074 184.82 L 269.956 184.865 C 269.523 188.141 269.681 191.531 269.835 194.809 C 269.888 195.949 269.941 197.085 269.97 198.214 C 270.023 200.261 269.98 202.343 269.938 204.356 C 269.839 209.194 269.734 214.196 270.964 219.05 C 271.773 222.25 272.564 223.438 275.646 224.171 C 277.982 224.727 280.293 224.802 282.244 224.802 C 283.02 224.802 283.801 224.789 284.586 224.775 L 284.736 224.772 C 285.559 224.758 286.383 224.752 287.206 224.752 C 290.01 224.752 292.859 224.824 295.614 224.894 C 298.371 224.964 301.221 225.036 304.027 225.036 C 306.045 225.036 307.858 225 309.571 224.924 C 310.053 224.902 310.547 224.891 311.046 224.879 C 314.053 224.811 317.163 224.74 319.382 222.525 C 320.964 220.945 320.908 218.155 320.858 215.694 C 320.841 214.833 320.824 214.018 320.875 213.291 C 320.984 213.293 321.097 213.297 321.212 213.302 C 321.357 213.308 321.506 213.314 321.653 213.314 C 322.008 213.314 322.462 213.281 322.833 213.023 C 324.357 211.965 324.334 207.974 324.322 205.83 C 324.32 205.526 324.318 205.258 324.321 205.041 Z " fill="rgb(54,57,63)"/><path d=" M 312.264 209.267 C 311.947 209.267 311.616 209.205 311.279 209.082 C 310.185 208.686 309.65 207.776 309.848 206.649 C 310.062 205.43 311.154 204.168 312.608 204.168 C 312.756 204.168 312.905 204.181 313.043 204.205 C 313.836 204.471 314.39 204.949 314.646 205.587 C 314.912 206.249 314.83 207.049 314.415 207.84 C 313.932 208.76 313.168 209.267 312.264 209.267 Z  M 313.605 203.154 C 313.534 203.1 313.451 203.064 313.373 203.051 C 313.323 203.035 313.272 203.024 313.19 203.024 C 313.171 203.024 313.148 203.025 313.124 203.026 C 312.959 203.006 312.794 202.997 312.629 202.997 C 310.857 202.997 309.331 204.071 308.83 205.671 C 308.196 207.693 309.066 209.57 310.946 210.235 C 311.387 210.391 311.831 210.471 312.264 210.471 C 313.787 210.471 315.068 209.513 315.689 207.909 C 316.091 206.876 316.104 205.884 315.73 205.041 C 315.356 204.194 314.612 203.537 313.605 203.154 Z " fill="rgb(54,57,63)"/><path d=" M 276.855 192.397 C 276.846 192.133 276.674 191.849 276.271 191.849 C 276.27 191.849 274.385 191.966 274.385 191.966 C 273.995 191.99 273.801 192.313 273.81 192.618 C 273.818 192.882 273.992 193.167 274.353 193.167 L 276.28 193.048 C 276.67 193.024 276.864 192.702 276.855 192.397 Z " fill="rgb(54,57,63)"/><path d=" M 282.247 192.299 C 282.235 192.038 282.069 191.774 281.665 191.774 C 281.663 191.774 279.443 191.971 279.443 191.971 C 279.055 192.006 278.86 192.344 278.874 192.646 C 278.887 192.956 279.104 193.173 279.4 193.173 L 281.677 192.974 C 282.064 192.939 282.26 192.6 282.247 192.299 Z " fill="rgb(54,57,63)"/><path d=" M 286.907 192.587 C 286.91 192.286 286.712 191.977 286.326 191.968 C 286.137 191.964 285.949 191.962 285.761 191.962 C 285.467 191.962 285.173 191.967 284.878 191.978 C 284.491 191.991 284.294 192.305 284.3 192.607 C 284.304 192.882 284.481 193.178 284.86 193.178 L 284.886 193.178 C 285.178 193.167 285.47 193.162 285.761 193.162 C 285.948 193.162 286.338 193.168 286.338 193.168 C 286.707 193.168 286.903 192.876 286.907 192.587 Z " fill="rgb(54,57,63)"/><path d=" M 292.373 192.518 C 292.366 192.249 292.191 191.96 291.788 191.96 C 291.787 191.96 291.787 191.96 291.786 191.96 C 291.205 191.989 290.624 192.004 290.042 192.004 L 289.905 192.003 C 289.524 192.003 289.325 192.304 289.324 192.601 C 289.324 192.899 289.523 193.202 289.907 193.204 L 290.042 193.204 C 290.628 193.204 291.212 193.189 291.796 193.16 C 292.184 193.14 292.38 192.822 292.373 192.518 Z " fill="rgb(54,57,63)"/><path d=" M 297.615 192.726 C 297.63 192.424 297.434 192.084 297.047 192.048 C 296.441 191.991 295.825 191.963 295.217 191.963 L 295.042 191.963 C 294.658 191.967 294.459 192.272 294.46 192.571 C 294.461 192.866 294.66 193.164 295.044 193.164 L 295.217 193.163 C 295.819 193.163 296.428 193.191 297.027 193.247 L 297.092 193.25 C 297.436 193.25 297.603 192.987 297.615 192.726 Z " fill="rgb(54,57,63)"/><path d=" M 302.299 193.205 L 302.325 193.205 C 302.702 193.205 302.88 192.909 302.885 192.635 C 302.89 192.333 302.693 192.019 302.306 192.004 C 302.115 191.998 301.927 191.98 301.737 191.961 C 301.495 191.938 301.253 191.915 301.011 191.915 C 300.769 191.915 300.554 191.939 300.354 191.987 C 300.057 192.059 299.889 192.302 299.926 192.607 C 299.959 192.884 300.171 193.165 300.513 193.165 C 300.563 193.165 300.615 193.158 300.667 193.146 C 300.795 193.115 300.935 193.1 301.095 193.1 C 301.31 193.1 301.53 193.126 301.748 193.153 C 301.933 193.175 302.119 193.198 302.299 193.205 Z " fill="rgb(54,57,63)"/><path d=" M 305.309 193.052 C 305.653 193.062 305.998 193.066 306.342 193.066 C 306.871 193.066 307.399 193.055 307.928 193.033 C 308.316 193.016 308.512 192.7 308.506 192.397 C 308.5 192.125 308.324 191.833 307.921 191.833 L 307.92 191.833 C 307.393 191.855 306.867 191.866 306.342 191.866 C 306 191.866 305.657 191.862 305.295 191.852 C 304.912 191.852 304.733 192.151 304.729 192.429 C 304.725 192.73 304.924 193.042 305.309 193.052 Z " fill="rgb(54,57,63)"/><path d=" M 311.192 193.043 L 311.193 193.043 C 311.391 193.034 311.589 193.03 311.786 193.03 C 312.256 193.03 312.732 193.054 313.204 193.1 L 313.27 193.104 C 313.612 193.104 313.778 192.842 313.791 192.582 C 313.805 192.28 313.612 191.939 313.223 191.901 C 312.746 191.854 312.261 191.83 311.786 191.83 C 311.586 191.83 311.386 191.834 311.185 191.842 C 310.798 191.858 310.601 192.173 310.607 192.477 C 310.613 192.749 310.789 193.043 311.192 193.043 Z " fill="rgb(54,57,63)"/><path d=" M 316.36 194.761 C 316.465 194.95 316.64 195.059 316.843 195.059 C 317.061 195.059 317.284 194.93 317.397 194.739 C 317.504 194.558 317.505 194.353 317.399 194.159 C 317.121 193.653 316.771 193.182 316.359 192.757 C 316.245 192.639 316.104 192.576 315.955 192.576 C 315.718 192.576 315.483 192.74 315.385 192.973 C 315.292 193.192 315.339 193.428 315.51 193.604 C 315.843 193.948 316.121 194.326 316.36 194.761 Z " fill="rgb(54,57,63)"/><path d=" M 316.981 196.69 C 316.811 196.69 316.653 196.754 316.548 196.864 C 316.446 196.97 316.396 197.113 316.403 197.295 L 316.475 198.974 C 316.491 199.354 316.8 199.552 317.096 199.552 C 317.266 199.552 317.425 199.488 317.53 199.378 C 317.632 199.272 317.681 199.129 317.675 198.966 L 317.602 197.269 C 317.587 196.889 317.278 196.69 316.981 196.69 Z " fill="rgb(54,57,63)"/><path d=" M 278.128 220.25 L 276.681 220.174 C 276.314 220.174 276.139 220.462 276.132 220.73 C 276.124 221.035 276.319 221.354 276.709 221.375 L 278.18 221.452 C 278.549 221.452 278.723 221.163 278.731 220.895 C 278.739 220.59 278.544 220.271 278.128 220.25 Z " fill="rgb(54,57,63)"/><path d=" M 283.636 220.204 L 281.002 220.115 C 280.623 220.115 280.445 220.412 280.44 220.687 C 280.435 220.989 280.632 221.302 281.019 221.315 L 283.654 221.404 C 284.033 221.404 284.211 221.107 284.216 220.832 C 284.22 220.529 284.023 220.217 283.636 220.204 Z " fill="rgb(54,57,63)"/><path d=" M 289.185 220.113 C 289.181 220.113 289.177 220.114 289.173 220.114 C 288.771 220.162 288.364 220.186 287.963 220.186 C 287.634 220.186 287.303 220.17 286.905 220.134 C 286.563 220.134 286.397 220.397 286.385 220.656 C 286.37 220.958 286.563 221.299 286.952 221.337 C 287.29 221.37 287.627 221.386 287.963 221.386 C 287.964 221.386 287.964 221.386 287.964 221.386 C 288.372 221.386 288.787 221.361 289.196 221.312 C 289.587 221.266 289.777 220.917 289.76 220.613 C 289.741 220.315 289.543 220.113 289.185 220.113 Z " fill="rgb(54,57,63)"/><path d=" M 294.144 220.045 L 292.511 220.109 C 292.123 220.125 291.927 220.439 291.932 220.742 C 291.937 221.016 292.115 221.31 292.49 221.31 L 294.151 221.245 C 294.539 221.23 294.735 220.915 294.729 220.611 C 294.723 220.338 294.548 220.045 294.144 220.045 Z " fill="rgb(54,57,63)"/><path d=" M 299.632 220.236 L 297.803 220.234 C 297.421 220.234 297.22 220.536 297.22 220.834 C 297.22 221.132 297.421 221.434 297.803 221.435 L 299.633 221.437 C 300.014 221.437 300.215 221.135 300.215 220.837 C 300.215 220.539 300.014 220.237 299.632 220.236 Z " fill="rgb(54,57,63)"/><path d=" M 304.779 220.114 C 304.731 220.114 304.682 220.12 304.635 220.131 C 304.126 220.245 303.592 220.303 303.046 220.303 C 302.76 220.303 302.474 220.287 302.117 220.251 C 301.782 220.251 301.618 220.508 301.604 220.763 C 301.588 221.066 301.78 221.411 302.17 221.455 C 302.46 221.486 302.754 221.502 303.048 221.502 C 303.679 221.502 304.317 221.431 304.944 221.291 C 305.241 221.224 305.41 220.985 305.377 220.683 C 305.345 220.407 305.126 220.114 304.779 220.114 Z " fill="rgb(54,57,63)"/><path d=" M 309.482 220.199 C 309.48 220.199 309.478 220.199 309.476 220.199 C 309.354 220.209 309.232 220.214 309.111 220.214 C 308.826 220.214 308.541 220.189 308.256 220.165 C 307.966 220.14 307.675 220.115 307.384 220.115 C 307.258 220.115 307.131 220.12 307.004 220.131 C 306.616 220.166 306.421 220.505 306.434 220.806 C 306.446 221.067 306.611 221.331 307.015 221.331 C 307.017 221.331 307.019 221.331 307.021 221.331 C 307.142 221.32 307.263 221.315 307.384 221.315 C 307.67 221.315 307.954 221.34 308.239 221.364 C 308.529 221.389 308.82 221.414 309.111 221.414 C 309.239 221.414 309.366 221.409 309.494 221.398 C 309.882 221.363 310.077 221.024 310.063 220.723 C 310.052 220.462 309.886 220.199 309.482 220.199 Z " fill="rgb(54,57,63)"/><path d=" M 313.649 221.122 C 313.651 221.122 313.653 221.122 313.655 221.122 L 313.754 221.218 C 314.133 221.218 314.31 220.921 314.315 220.646 C 314.32 220.343 314.124 220.03 313.649 220.016 C 313.33 220.016 313.016 220.073 312.714 220.128 C 312.42 220.182 312.116 220.238 311.816 220.238 L 311.816 220.332 C 311.814 220.332 311.812 220.332 311.81 220.332 L 311.712 220.236 C 311.333 220.236 311.155 220.533 311.15 220.809 C 311.145 221.111 311.343 221.423 311.729 221.437 L 311.816 221.438 C 312.136 221.438 312.449 221.38 312.752 221.325 C 313.046 221.272 313.349 221.216 313.649 221.216 L 313.649 221.122 Z " fill="rgb(54,57,63)"/><path d=" M 315.585 220.872 L 315.637 220.87 C 316.503 220.803 317.214 220.366 317.638 219.64 C 317.75 219.451 317.755 219.248 317.651 219.068 C 317.54 218.874 317.315 218.743 317.091 218.743 C 316.886 218.743 316.713 218.847 316.603 219.034 C 316.381 219.413 316.033 219.638 315.622 219.67 C 315.231 219.701 315.038 220.027 315.051 220.334 C 315.062 220.651 315.282 220.872 315.585 220.872 Z " fill="rgb(54,57,63)"/><path d=" M 317.258 217.437 C 317.551 217.437 317.87 217.242 317.912 216.871 L 318.065 215.502 C 318.084 215.339 318.043 215.196 317.948 215.09 C 317.847 214.978 317.692 214.914 317.521 214.914 C 317.227 214.914 316.908 215.108 316.866 215.482 L 316.713 216.848 C 316.695 217.012 316.735 217.154 316.831 217.261 C 316.93 217.373 317.086 217.437 317.258 217.437 Z " fill="rgb(54,57,63)"/><path d=" M 320.981 203.343 C 321.174 203.707 321.219 204.157 321.261 204.592 C 321.283 204.812 321.304 205.029 321.344 205.234 C 321.396 205.506 321.597 205.675 321.867 205.675 C 322.062 205.675 322.259 205.583 322.382 205.434 C 322.497 205.295 322.541 205.116 322.506 204.93 C 322.465 204.718 322.436 204.501 322.409 204.283 C 322.323 203.608 322.234 202.91 321.751 202.356 C 321.129 201.644 320.213 201.552 319.483 201.552 C 319.324 201.552 319.166 201.557 319.011 201.564 C 318.623 201.582 318.427 201.899 318.433 202.204 C 318.44 202.474 318.616 202.765 318.987 202.765 L 319.096 202.76 C 319.25 202.753 319.414 202.745 319.58 202.745 C 320.086 202.745 320.703 202.813 320.981 203.343 Z " fill="rgb(54,57,63)"/><path d=" M 321.684 206.428 C 321.386 206.428 321.085 206.628 321.085 207.064 C 321.085 207.447 321.386 207.647 321.684 207.647 C 321.84 207.647 321.984 207.596 322.094 207.502 C 322.219 207.395 322.284 207.243 322.284 207.011 C 322.284 206.628 321.982 206.428 321.684 206.428 Z " fill="rgb(54,57,63)"/></g></svg>